<?xml version="1.0" encoding="utf-8"?>
<!-- Generator: Adobe Illustrator 22.0.0, SVG Export Plug-In . SVG Version: 6.00 Build 0)  -->
<svg version="1.1" id="Capa_1" xmlns="http://www.w3.org/2000/svg" xmlns:xlink="http://www.w3.org/1999/xlink" x="0px" y="0px"
	 viewBox="0 0 182.9 89.2" style="enable-background:new 0 0 182.9 89.2;" xml:space="preserve">
<style type="text/css">
	.st0{fill:#5D6771;}
	.st1{clip-path:url(#SVGID_2_);}
	.st2{fill:url(#SVGID_3_);}
	.st3{clip-path:url(#SVGID_5_);}
	.st4{fill:url(#SVGID_6_);}
	.st5{clip-path:url(#SVGID_8_);}
	.st6{fill:url(#SVGID_9_);}
	.st7{fill:#5D6970;}
	.st8{fill:#82959D;}
	.st9{fill:#8A989D;}
	.st10{clip-path:url(#SVGID_11_);}
	.st11{fill:url(#SVGID_12_);}
	.st12{clip-path:url(#SVGID_14_);}
	.st13{fill:url(#SVGID_15_);}
	.st14{fill:#ADB6BA;}
	.st15{clip-path:url(#SVGID_17_);}
	.st16{fill:url(#SVGID_18_);}
	.st17{fill:#4B555A;}
	.st18{clip-path:url(#SVGID_20_);}
	.st19{fill:url(#SVGID_21_);}
	.st20{clip-path:url(#SVGID_23_);}
	.st21{fill:url(#SVGID_24_);}
	.st22{clip-path:url(#SVGID_26_);}
	.st23{fill:url(#SVGID_27_);}
	.st24{clip-path:url(#SVGID_29_);}
	.st25{fill:url(#SVGID_30_);}
	.st26{clip-path:url(#SVGID_32_);}
	.st27{fill:url(#SVGID_33_);}
	.st28{fill:#FFFFFF;}
</style>
<title>lg_logo</title>
<g id="Layer_2">
	<g id="Capa_1_1_">
		<path class="st0" d="M100.3,75.2h2.2v2h-2.2V75.2z M100.3,79.3h2.2V89h-2.2L100.3,79.3z"/>
		<path class="st0" d="M111.1,79.3v1.7h-3.4V89h-2.2v-8.1h-1.4v-1.7h1.4v-1.1c0-2.9,1.6-3.8,3.9-3.8c0.8,0,1.5,0.1,2.2,0.4l-0.5,1.6
			c-0.5-0.2-1-0.3-1.5-0.3c-1.4,0-1.9,0.6-1.9,2.2v1.1H111.1z"/>
		<path class="st0" d="M111.8,84.1c0-3.4,1.5-5,4.7-5c3.4,0,4.1,2,4.1,4.8v0.9H114c0,2.1,0.8,3,2.8,3c1.1,0,2.2-0.3,3.1-0.8l0.5,1.4
			c-1.2,0.6-2.6,1-3.9,1c-3.5,0-4.7-1.7-4.7-5.2 M114,83.3h4.2c0-1.8-0.7-2.6-1.9-2.6C114.7,80.7,114.1,81.6,114,83.3"/>
		<path class="st0" d="M120.8,79c0.8-1.4,1.2-3,1.1-4.6h2.1c0.1,2-0.5,3.9-1.8,5.4L120.8,79z"/>
		<path class="st0" d="M129.8,83.7c1.2,0.4,2.2,1,2.2,2.6c0,2-1.6,3-4.2,3c-1.3,0-2.5-0.2-3.7-0.7l0.7-1.6c0.9,0.4,2,0.7,3,0.7
			c1.2,0,2-0.2,2-1.2c0-0.6-0.4-0.9-1.2-1.2s-1.6-0.5-2.3-0.8c-1.2-0.3-2.1-1.3-2.1-2.6c0-2.1,1.8-2.9,4.1-2.9
			c1.2,0,2.4,0.2,3.6,0.6l-0.6,1.5c-0.9-0.4-1.9-0.7-2.9-0.7c-1.4,0-2,0.4-2,1.1s0.4,0.8,1.2,1.1C128,83,129.1,83.4,129.8,83.7"/>
		<path class="st0" d="M150.6,88.3c-1.6,0.7-3.3,1-5,0.9c-4.5,0-6.5-2.5-6.5-7.2c0-4.9,2.6-7.2,6.7-7.2c1.8-0.1,3.6,0.6,4.8,1.9
			l-1.4,1.2c-0.9-0.9-2.1-1.5-3.4-1.4c-3,0-4.5,2-4.5,5.7c0,3.4,1.4,5.2,4.4,5.2c0.9,0,1.8-0.1,2.7-0.3v-3.8h-3.2v-1.7h5.4
			L150.6,88.3z"/>
		<polygon class="st0" points="98.9,87.2 98.9,89 90.5,89 90.5,75 92.8,75 92.8,87.2 		"/>
		<path class="st0" d="M152.2,84.1c0-3.4,1.6-5.1,4.9-5.1s4.5,2,4.5,5.2c0,3.4-1.6,5-5,5S152.2,87.3,152.2,84.1 M159.4,84
			c0-1.9-0.4-3.4-2.3-3.4c-2.1,0-2.7,1.3-2.7,3.7c0,1.9,0.4,3.4,2.3,3.4C158.8,87.7,159.4,86.4,159.4,84"/>
		<path class="st0" d="M163,84.1c0-3.4,1.6-5.1,5-5.1s4.5,2,4.5,5.2c0,3.4-1.6,5-5,5S163,87.3,163,84.1 M170.2,84
			c0-1.9-0.4-3.4-2.3-3.4c-2.1,0-2.7,1.3-2.7,3.7c0,1.9,0.4,3.4,2.3,3.4C169.6,87.7,170.2,86.4,170.2,84"/>
		<path class="st0" d="M173.9,84.4c0-3.1,1.3-5.3,4.7-5.3c0.7,0,1.4,0.1,2,0.4v-4.9l2.2-0.3v12.2l0.2,2.6H181l-0.2-0.7
			c-0.8,0.6-1.8,0.9-2.9,0.9C175.2,89.3,173.9,87.4,173.9,84.4 M180.5,87v-5.9c-0.5-0.3-1-0.4-1.6-0.4c-1.7,0-2.8,1-2.8,3.6
			c0,2,0.7,3.4,2.5,3.4C179.3,87.7,180,87.4,180.5,87"/>
		<polygon class="st0" points="101.7,13.1 90.6,13.1 90.6,61 124.6,61 124.6,51.7 101.7,51.7 		"/>
		<path class="st0" d="M148.9,42.8h9v8.4c-2.6,0.8-5.3,1.3-8,1.3c-10,0-13.3-5.1-13.3-15.3c0-9.8,3.2-15.6,13.1-15.6
			c5.5,0,8.7,1.7,11.3,5l7-6.3c-4.2-6-11.5-7.8-18.4-7.8c-15.5,0-23.6,8.4-23.6,24.6s7.3,24.7,23.5,24.7c7.4,0,14.7-1.9,18.6-4.7
			V33.8h-19.2V42.8z"/>
		<g>
			<defs>
				<path id="SVGID_1_" d="M0,37.3c-0.1,20.5,16.4,37.1,36.9,37.2C57.3,74.5,74,58,74.1,37.5V37C74,16.5,57.3,0,36.9,0.1
					S-0.1,16.8,0,37.3"/>
			</defs>
			<clipPath id="SVGID_2_">
				<use xlink:href="#SVGID_1_"  style="overflow:visible;"/>
			</clipPath>
			<g class="st1">
				
					<radialGradient id="SVGID_3_" cx="-1393.5461" cy="-379.3904" r="0.34" gradientTransform="matrix(114.62 0 0 115.2551 159758.8125 43759.0977)" gradientUnits="userSpaceOnUse">
					<stop  offset="0" style="stop-color:#BE1E55"/>
					<stop  offset="0.5" style="stop-color:#BE1E55"/>
					<stop  offset="0.73" style="stop-color:#BC1E54"/>
					<stop  offset="0.83" style="stop-color:#B51D52"/>
					<stop  offset="0.91" style="stop-color:#A81B4E"/>
					<stop  offset="0.97" style="stop-color:#971948"/>
					<stop  offset="1" style="stop-color:#8B1844"/>
				</radialGradient>
				<rect x="0" y="0" class="st2" width="74.1" height="74.5"/>
			</g>
		</g>
		<g>
			<defs>
				<path id="SVGID_4_" d="M12,12.3C-0.4,24.6-1.7,43.4,9.2,54.3s29.7,9.6,42.1-2.8s13.6-31.3,2.8-42.1C49.1,4.6,42.5,1.9,35.6,2
					C26.7,2.2,18.2,5.9,12,12.3"/>
			</defs>
			<clipPath id="SVGID_5_">
				<use xlink:href="#SVGID_4_"  style="overflow:visible;"/>
			</clipPath>
			<g class="st3">
				
					<linearGradient id="SVGID_6_" gradientUnits="userSpaceOnUse" x1="-1401.3639" y1="-372.0402" x2="-1401.0339" y2="-372.0402" gradientTransform="matrix(57.9827 159.3061 159.3061 -57.9827 140543.8281 201677.5781)">
					<stop  offset="0" style="stop-color:#DE7C80"/>
					<stop  offset="0.25" style="stop-color:#D35C71"/>
					<stop  offset="0.57" style="stop-color:#C83A62"/>
					<stop  offset="0.83" style="stop-color:#C12658"/>
					<stop  offset="1" style="stop-color:#BE1E55"/>
				</linearGradient>
				<polygon class="st4" points="-22,9.4 57.1,-19.4 85.2,57.8 6.1,86.6 				"/>
			</g>
		</g>
		<g>
			<defs>
				<path id="SVGID_7_" d="M20.7,26c0,2.8,2.2,5,4.9,5s5-2.2,5-4.9c0-2.8-2.2-5-4.9-5c0,0,0,0,0,0C22.9,21.1,20.7,23.3,20.7,26
					 M36.2,21.6H36v0l-0.2,0.1l0.2,0.4v31.3l-0.9,0.5l0.7,0.5c0.2,0.1,0.3,0.1,0.5,0.1h10.3c0.1,0,0.2-0.1,0.2-0.2c0,0,0,0,0,0v-2.9
					c0-0.1,0-0.2-0.1-0.3l-0.5-0.8h-6.7V21.8c0-0.1,0-0.2-0.1-0.2L39,20.6L36.2,21.6z M37.4,6.1l-0.8,0.3
					C19.2,6.4,6.2,20.9,6.2,38.3c0,17.1,13.8,31,30.9,31.1c0.2,0,0.4,0,0.6,0c8.4,0.1,16.4-3.2,22.3-9.1c5.9-5.9,9.3-13.9,9.2-22.2
					v-1.8l-0.8-0.7H45.6v3.7l0.6,0.8c0.1,0,0.1,0.1,0.2,0.1h19.2C64.4,55.5,51,67,35.6,65.9C29,65.4,22.7,62.5,18,57.8
					C7.2,46.9,7.1,29.4,17.8,18.5c5.3-5.2,12.5-8.2,19.9-8.1h1.5h0.2c0.1,0,0.2,0,0.2-0.3v-3c0-0.1,0-0.2-0.1-0.3l-0.7-0.8L37.4,6.1
					z"/>
			</defs>
			<clipPath id="SVGID_8_">
				<use xlink:href="#SVGID_7_"  style="overflow:visible;"/>
			</clipPath>
			<g class="st5">
				
					<linearGradient id="SVGID_9_" gradientUnits="userSpaceOnUse" x1="-1399.2961" y1="-374.0222" x2="-1398.9561" y2="-374.0222" gradientTransform="matrix(133.0068 133.0068 133.0068 -133.0068 235881.6094 136386.5625)">
					<stop  offset="0" style="stop-color:#CC4764"/>
					<stop  offset="0.11" style="stop-color:#BA3A5B"/>
					<stop  offset="0.27" style="stop-color:#A52B51"/>
					<stop  offset="0.45" style="stop-color:#96204A"/>
					<stop  offset="0.66" style="stop-color:#8E1A45"/>
					<stop  offset="1" style="stop-color:#8B1844"/>
				</linearGradient>
				<polygon class="st6" points="-25.6,37.6 37.7,-25.7 101,37.6 37.7,100.9 				"/>
			</g>
		</g>
		<polygon class="st7" points="35.9,53.2 35.1,53.9 46.2,53.9 45.5,53.1 		"/>
		<polygon class="st8" points="45.5,50.9 46.2,50.2 38.9,50.2 38.1,50.9 		"/>
		<polygon class="st9" points="38.9,20.6 35.1,20.6 35.8,21.3 38.1,21.3 		"/>
		<g>
			<defs>
				<polygon id="SVGID_10_" points="38.1,21.3 38.1,50.9 39,50.2 39,20.6 				"/>
			</defs>
			<clipPath id="SVGID_11_">
				<use xlink:href="#SVGID_10_"  style="overflow:visible;"/>
			</clipPath>
			<g class="st10">
				
					<linearGradient id="SVGID_12_" gradientUnits="userSpaceOnUse" x1="-932.9327" y1="-345.7512" x2="-932.5927" y2="-345.7512" gradientTransform="matrix(2.44 0 0 -2.44 2317.3896 -807.8798)">
					<stop  offset="0" style="stop-color:#ADB6BA"/>
					<stop  offset="0.13" style="stop-color:#959EA3"/>
					<stop  offset="0.41" style="stop-color:#677074"/>
					<stop  offset="0.66" style="stop-color:#444D52"/>
					<stop  offset="0.86" style="stop-color:#30393E"/>
					<stop  offset="1" style="stop-color:#283136"/>
				</linearGradient>
				<rect x="38.1" y="20.6" class="st11" width="0.8" height="30.2"/>
			</g>
		</g>
		<g>
			<defs>
				<polygon id="SVGID_13_" points="46.2,50.2 45.5,50.9 45.5,53.1 46.2,53.9 46.2,50.2 				"/>
			</defs>
			<clipPath id="SVGID_14_">
				<use xlink:href="#SVGID_13_"  style="overflow:visible;"/>
			</clipPath>
			<g class="st12">
				
					<linearGradient id="SVGID_15_" gradientUnits="userSpaceOnUse" x1="-872.7145" y1="-323.3088" x2="-872.3745" y2="-323.3088" gradientTransform="matrix(2.14 0 0 -2.14 1910.8848 -639.8328)">
					<stop  offset="0" style="stop-color:#ADB6BA"/>
					<stop  offset="0.13" style="stop-color:#959EA3"/>
					<stop  offset="0.41" style="stop-color:#677074"/>
					<stop  offset="0.66" style="stop-color:#444D52"/>
					<stop  offset="0.86" style="stop-color:#30393E"/>
					<stop  offset="1" style="stop-color:#283136"/>
				</linearGradient>
				<rect x="45.5" y="50.2" class="st13" width="0.7" height="3.7"/>
			</g>
		</g>
		<polygon class="st14" points="35.1,20.6 35.1,53.9 35.9,53.2 35.8,21.3 		"/>
		<g>
			<defs>
				<path id="SVGID_16_" d="M21.1,25.5c0-2.3,1.8-4.1,4.1-4.1c2.3,0,4.1,1.8,4.1,4.1c0,2.3-1.8,4.1-4.1,4.1c0,0,0,0,0,0
					C22.9,29.6,21.1,27.7,21.1,25.5 M20.4,25.5c0,2.7,2.2,4.8,4.8,4.8s4.8-2.2,4.8-4.8s-2.2-4.8-4.8-4.8l0,0
					C22.5,20.6,20.4,22.8,20.4,25.5C20.4,25.4,20.4,25.4,20.4,25.5"/>
			</defs>
			<clipPath id="SVGID_17_">
				<use xlink:href="#SVGID_16_"  style="overflow:visible;"/>
			</clipPath>
			<g class="st15">
				
					<linearGradient id="SVGID_18_" gradientUnits="userSpaceOnUse" x1="-1375.884" y1="-409.2275" x2="-1375.5439" y2="-409.2275" gradientTransform="matrix(20.2728 20.2728 -20.2728 20.2728 19619.5684 36212.1602)">
					<stop  offset="0" style="stop-color:#A3B3BA"/>
					<stop  offset="0.24" style="stop-color:#7B8990"/>
					<stop  offset="0.6" style="stop-color:#475259"/>
					<stop  offset="0.86" style="stop-color:#263036"/>
					<stop  offset="1" style="stop-color:#1A2329"/>
				</linearGradient>
				<polygon class="st16" points="15.5,25.5 25.2,15.8 34.9,25.5 25.2,35.1 				"/>
			</g>
		</g>
		<polygon class="st17" points="65.4,38.4 46.2,38.4 45.5,39.1 64.7,39.1 65,38.7 		"/>
		<polygon class="st9" points="46.2,36.2 67.7,36.2 68.4,35.5 45.5,35.5 		"/>
		<g>
			<defs>
				<path id="SVGID_19_" d="M5.6,37.3c0,17.3,14,31.4,31.3,31.4c8.3,0,16.3-3.3,22.2-9.2c5.9-5.9,9.2-13.9,9.2-22.2v-1.8l-0.7,0.7
					v1.1c0,16.9-13.7,30.7-30.6,30.7c-8.1,0-16-3.2-21.7-9c-12-12-12-31.4,0-43.4c5.7-5.7,13.5-9,21.7-9h1.2l0.7-0.7H37
					C19.7,5.9,5.7,19.9,5.6,37.3"/>
			</defs>
			<clipPath id="SVGID_20_">
				<use xlink:href="#SVGID_19_"  style="overflow:visible;"/>
			</clipPath>
			<g class="st18">
				
					<linearGradient id="SVGID_21_" gradientUnits="userSpaceOnUse" x1="-1399.283" y1="-383.3323" x2="-1398.9429" y2="-383.3323" gradientTransform="matrix(132.8017 132.8017 -132.8017 132.8017 134937.6875 236752.3281)">
					<stop  offset="0" style="stop-color:#ADB6BA"/>
					<stop  offset="8.000000e-02" style="stop-color:#A1AAAE"/>
					<stop  offset="0.51" style="stop-color:#677074"/>
					<stop  offset="0.83" style="stop-color:#434C51"/>
					<stop  offset="1" style="stop-color:#353E43"/>
				</linearGradient>
				<polygon class="st19" points="-25.7,37.3 37,-25.5 99.8,37.3 37,100 				"/>
			</g>
		</g>
		<g>
			<defs>
				<path id="SVGID_22_" d="M36.6,8.9C20.9,8.9,8.2,21.6,8.2,37.3s12.7,28.4,28.4,28.4h0.7c14.8-0.2,27-11.7,28-26.5v-0.8L65,38.7
					l-0.4,0.4c-1,15.3-14.2,26.8-29.5,25.8c-15.3-1-26.8-14.2-25.8-29.5C10.3,20.9,22.4,9.5,37,9.6h1.9l-0.7-0.7L36.6,8.9L36.6,8.9z
					"/>
			</defs>
			<clipPath id="SVGID_23_">
				<use xlink:href="#SVGID_22_"  style="overflow:visible;"/>
			</clipPath>
			<g class="st20">
				
					<linearGradient id="SVGID_24_" gradientUnits="userSpaceOnUse" x1="-1410.1221" y1="-378.1223" x2="-1409.792" y2="-378.1223" gradientTransform="matrix(-168.58 0 0 -168.58 -237648.2031 -63706.5859)">
					<stop  offset="0" style="stop-color:#ADB6BA"/>
					<stop  offset="0.4" style="stop-color:#7C858A"/>
					<stop  offset="0.8" style="stop-color:#535B61"/>
					<stop  offset="1" style="stop-color:#434B51"/>
				</linearGradient>
				<rect x="8.6" y="8.9" class="st21" width="56.8" height="56.9"/>
			</g>
		</g>
		<polygon class="st14" points="46.2,36.2 45.5,35.5 45.5,39.1 46.2,38.4 		"/>
		<g>
			<defs>
				<polygon id="SVGID_25_" points="38.2,6.6 38.2,8.9 38.9,9.6 38.9,5.9 				"/>
			</defs>
			<clipPath id="SVGID_26_">
				<use xlink:href="#SVGID_25_"  style="overflow:visible;"/>
			</clipPath>
			<g class="st22">
				
					<linearGradient id="SVGID_27_" gradientUnits="userSpaceOnUse" x1="-862.0583" y1="-366.9306" x2="-861.7184" y2="-366.9306" gradientTransform="matrix(2.12 0 0 -2.12 1868.6495 -770.1397)">
					<stop  offset="0" style="stop-color:#ADB6BA"/>
					<stop  offset="0.13" style="stop-color:#959EA3"/>
					<stop  offset="0.41" style="stop-color:#677074"/>
					<stop  offset="0.66" style="stop-color:#444D52"/>
					<stop  offset="0.86" style="stop-color:#30393E"/>
					<stop  offset="1" style="stop-color:#283136"/>
				</linearGradient>
				<rect x="38.2" y="5.9" class="st23" width="0.7" height="3.7"/>
			</g>
		</g>
		<g>
			<defs>
				<path id="SVGID_28_" d="M35.5,21v32.4h10.3v-2.9h-7.4V21H35.5z M36.6,6.3C19.5,6.5,5.8,20.5,6,37.7
					c0.2,17.1,14.3,30.8,31.4,30.6c17-0.2,30.6-14,30.6-31v-1.4H45.9v2.9H65c0,0.1,0,0.4,0,0.4c-1,15.5-14.5,27.2-29.9,26.1
					S7.9,50.8,8.9,35.4C9.9,20.6,22.2,9.1,37,9.2h1.5V6.3h-1.2H36.6z"/>
			</defs>
			<clipPath id="SVGID_29_">
				<use xlink:href="#SVGID_28_"  style="overflow:visible;"/>
			</clipPath>
			<g class="st24">
				
					<radialGradient id="SVGID_30_" cx="-1395.2606" cy="-378.2274" r="0.34" gradientTransform="matrix(140.65 0 0 -140.65 196272.7344 -53176.8828)" gradientUnits="userSpaceOnUse">
					<stop  offset="0" style="stop-color:#FFFFFF"/>
					<stop  offset="0.35" style="stop-color:#FFFFFF"/>
					<stop  offset="0.49" style="stop-color:#F9FAFB"/>
					<stop  offset="0.67" style="stop-color:#E9EDEE"/>
					<stop  offset="0.87" style="stop-color:#CFD7D9"/>
					<stop  offset="1" style="stop-color:#BAC5C9"/>
				</radialGradient>
				<rect x="6" y="6.3" class="st25" width="62" height="62"/>
			</g>
		</g>
		<g>
			<defs>
				<path id="SVGID_31_" d="M20.7,25.5c0,2.5,2,4.4,4.5,4.4s4.4-2,4.4-4.5s-2-4.4-4.4-4.4C22.7,21,20.7,23,20.7,25.5
					C20.7,25.4,20.7,25.5,20.7,25.5"/>
			</defs>
			<clipPath id="SVGID_32_">
				<use xlink:href="#SVGID_31_"  style="overflow:visible;"/>
			</clipPath>
			<g class="st26">
				
					<radialGradient id="SVGID_33_" cx="-1346.2339" cy="-375.7105" r="0.34" gradientTransform="matrix(20.54 0 0 -20.54 27669.5 -7689.4097)" gradientUnits="userSpaceOnUse">
					<stop  offset="0" style="stop-color:#FFFFFF"/>
					<stop  offset="0.35" style="stop-color:#FFFFFF"/>
					<stop  offset="0.52" style="stop-color:#F9FAFB"/>
					<stop  offset="0.74" style="stop-color:#E9EDEE"/>
					<stop  offset="0.99" style="stop-color:#CED7D9"/>
					<stop  offset="1" style="stop-color:#CDD6D8"/>
				</radialGradient>
				<rect x="20.7" y="21" class="st27" width="8.9" height="8.9"/>
			</g>
		</g>
		<path class="st28" d="M26,21.8c1,0,1.9,0.3,2.7,0.9c-1.5-1.9-4.3-2.3-6.2-0.8c-1.9,1.5-2.3,4.3-0.8,6.2c0.2,0.3,0.5,0.6,0.8,0.8
			c-0.6-0.8-0.9-1.7-1-2.7C21.5,23.8,23.5,21.8,26,21.8C26,21.8,26,21.8,26,21.8"/>
		<path class="st28" d="M38.5,6.3H37c-17.1,0-31,13.9-31,31c0,8.2,3.3,16.1,9.1,21.9l0.6,0.5C10.1,54,7.1,46.3,7.1,38.4
			C7.1,21.3,19.2,7.1,38.5,6.3"/>
		<path class="st28" d="M38.5,50.6c2.4,0.5,4.9,0.7,7.4,0.6v-0.6H38.5z"/>
		<path class="st28" d="M38.5,21.9V21h-3v32.4c0,0,0.9-4.9,0.9-31.5L38.5,21.9z"/>
		<path class="st28" d="M68,35.9H45.9v2.9h0.8v-2.1C65.9,36.7,68,35.9,68,35.9"/>
		<path class="st28" d="M65,38.7c0,0.1,0,0.4,0,0.4c-1.1,15.5-14.5,27.2-30,26.1c-11.8-0.8-21.9-9-25.1-20.4
			c3.4,12.4,14.7,20.9,27.5,20.9c15-0.1,27.3-12,27.9-27L65,38.7z"/>
	</g>
</g>
</svg>
