<svg xmlns="http://www.w3.org/2000/svg" xmlns:xlink="http://www.w3.org/1999/xlink" viewBox="0 0 752.26 159.39"><defs><style>.cls-1{fill:#bf0c3f;}.cls-2{fill:#737172;}.cls-3{fill:url(#Degradado_sin_nombre_8);}</style><linearGradient id="Degradado_sin_nombre_8" x1="165.6" y1="93.22" x2="717.94" y2="93.22" gradientUnits="userSpaceOnUse"><stop offset="0" stop-color="#fff"/><stop offset="1" stop-color="#bf0c3f"/></linearGradient></defs><title>logo_familyclub_blog</title><g id="Layer_2" data-name="Layer 2"><g id="Capa_1" data-name="Capa 1"><path class="cls-1" d="M551,112.68h15.12c5.2,0,9,1.12,11.46,3.37a10.77,10.77,0,0,1,3.66,8.21,11.66,11.66,0,0,1-2.07,6.43,11.38,11.38,0,0,1-6.61,4.43,12.36,12.36,0,0,1,8.09,4.31,11.3,11.3,0,0,1,2.77,7.21c0,7.26-5.78,12.28-16.71,12.28H551Zm2.48,21.56h13.06c8,0,12.28-4.14,12.28-9.87s-4.43-9.5-12.76-9.5H553.45Zm0,22.44H566.8c9,0,14.11-3.84,14.11-10s-5-10.16-13.87-10.16H553.45Z"/><path class="cls-1" d="M593.74,158.92V112.68h2.42v44h23.09v2.24Z"/><path class="cls-1" d="M628.05,152.6a25.05,25.05,0,0,1,0-33.54,22.75,22.75,0,0,1,32.6-.06,25,25,0,0,1-.06,33.54,22.82,22.82,0,0,1-32.54.06Zm1.77-32a21.28,21.28,0,0,0-5.73,15.05,21.87,21.87,0,0,0,5.73,15.3,20.06,20.06,0,0,0,29.06.06,21.53,21.53,0,0,0,5.73-15.12,21.76,21.76,0,0,0-5.79-15.18,19.91,19.91,0,0,0-29-.11Z"/><path class="cls-1" d="M717.94,137.37v2.24A18.69,18.69,0,0,1,712,153.72c-3.95,3.78-9,5.67-15.35,5.67a21.45,21.45,0,0,1-16.3-6.73,25.48,25.48,0,0,1,.06-33.66,21.5,21.5,0,0,1,16.42-6.85,20.09,20.09,0,0,1,13,4.25,22.18,22.18,0,0,1,7.2,9.75l-2.13,1a20.94,20.94,0,0,0-6-8.44,18.23,18.23,0,0,0-12.22-4.32,18.83,18.83,0,0,0-14.59,6.21,21.49,21.49,0,0,0-5.67,15.05,22.22,22.22,0,0,0,5.61,15.42,19.14,19.14,0,0,0,14.65,6.14A19.52,19.52,0,0,0,710,152.43a16.07,16.07,0,0,0,5.5-12.64v-.18H694.2v-2.24Z"/><path class="cls-2" d="M592.53,74.29H551V2.1h10.92V64.82h35.54Z"/><path class="cls-1" d="M234.67,2.1c-2.39,0-4.25.09-6.25,2.56L199.83,74.29h12.22l6.35-15.81h20.94l5.25-10.3H222.54l12.31-30.67,22.87,56.74h11.71L240.86,4.73C238.86,2.19,237.07,2.1,234.67,2.1Z"/><polygon class="cls-2" points="16.67 1.08 0 1.08 0 73.22 51.2 73.22 51.2 59.17 16.67 59.17 16.67 1.08"/><path class="cls-2" d="M87.85,45.73h13.56v12.6a38.19,38.19,0,0,1-12,1.9c-15,0-20-7.62-20-23.08,0-14.75,4.76-23.46,19.77-23.46,8.31,0,13.09,2.61,17,7.6l10.36-9.5C110.23,2.74,99.16,0,88.81,0c-23.35,0-35.6,12.74-35.6,37S64.29,74.29,88.69,74.29c11.18,0,22.15-2.87,28.09-7v-35H87.85Z"/><path class="cls-2" d="M521.24,3.13H544.3L538.8,14H523.65c-15.16,0-23.06,9-23.06,24.71s7.9,24.71,23.06,24.71H544.3l-5.5,10.87H521.24C502.79,74.07,488,61.44,488,38.71S502.79,3.35,521.24,3.13Z"/><path class="cls-1" d="M175.17,34.6H207.5l-4.56,8.88H175.17V74.29H164.59V4.22H212l-4.65,9.19H175.17Z"/><path class="cls-1" d="M366.07,74.29h-10.7V2.1h10.7Z"/><path class="cls-1" d="M418.26,74.29H376.7V2.1h10.92V64.82h35.54Z"/><path class="cls-1" d="M347,2.1V74.29H336.08V18.69L315.8,74.29H305.44l-20.28-55.6v55.6H274.25V2.1h14.82l21.49,58.59L332.06,2.1Z"/><path class="cls-1" d="M438.12,74.29h-10.7l7.65-18.73L412.16,2.1h11.09l17.12,40.72L456.73,2.1h10.68Z"/><path class="cls-2" d="M653.05,2.1H641.37V44.46c0,12.24-3.79,18.55-16.84,18.57v0l-.07,0-.08,0v0c-13,0-16.85-6.33-16.85-18.57V2.1H595.84V47c0,16.42,8.46,27.3,28.59,27.3h.05c20.1,0,28.57-10.88,28.57-27.3Z"/><path class="cls-2" d="M710.23,37.18a17.81,17.81,0,0,1,5.62,6.87,21.08,21.08,0,0,1,2.09,9.29,22.89,22.89,0,0,1-1.59,8.53,20.67,20.67,0,0,1-4.22,6.57,19.93,19.93,0,0,1-6.31,4.31,19.5,19.5,0,0,1-7.75,1.54H661.76V2.1h36a19.11,19.11,0,0,1,13.7,5.79,20.07,20.07,0,0,1,4.08,6.37A20.9,20.9,0,0,1,717,22.17a20.69,20.69,0,0,1-1.66,8.23A18.08,18.08,0,0,1,710.23,37.18ZM672.57,11.55V32.87h24.28a8.43,8.43,0,0,0,3.88-.91,8.6,8.6,0,0,0,2.87-2.4,11.52,11.52,0,0,0,1.79-3.38,13.61,13.61,0,0,0,.61-4,11.45,11.45,0,0,0-2.52-7.54,8.53,8.53,0,0,0-6.87-3.08ZM697,64.83a9.32,9.32,0,0,0,7-3.07c1.93-2,2.89-4.85,2.89-8.42a11.93,11.93,0,0,0-2.74-8.18,8.74,8.74,0,0,0-7-3.15H672.57V64.83Z"/><rect class="cls-3" x="165.6" y="90.78" width="552.34" height="4.89"/><rect class="cls-1" x="717.31" y="90.78" width="24.28" height="4.89"/><path class="cls-1" d="M747,35.5c-.81,4.93-1.61,9.77-2.41,14.61-1.32,8-2.6,16.1-4,24.14-.16.9-7.67,14.72-8.51,15.76-.36-1.36-2.79-15.93-2.74-17.65.1-4.14,9.77-59.52,9.91-60.2,1.51.23,3,.35,4.43.69s1.84,1.33,1.6,2.76c-.95,5.59-1.84,11.19-2.76,16.79-.35,2.15-.22,2.35,2,2.69ZM736.75,76.38l-5.14-.78,1.15,10,.36,0Z"/><path class="cls-1" d="M741.15,1.86l8.46,1.42a1.65,1.65,0,0,1,1.51,2.13l-.38,2.22a4.46,4.46,0,0,0,.89,3.82,2.32,2.32,0,0,1,.58,2.15c-.92,6.1-1.92,12.2-2.94,18.29-.37,2.23-.61,2.18-3,1.77-1.68-.28-2.11-.94-1.83-2.53.93-5.35,1.78-10.71,2.65-16.07.53-3.12-1.56-3.64-3.37-3.94C739.38,10.4,740,8.28,740,8.28Z"/></g></g></svg>