<?xml version="1.0" standalone="no"?>
<!DOCTYPE svg PUBLIC "-//W3C//DTD SVG 1.1//EN" "http://www.w3.org/Graphics/SVG/1.1/DTD/svg11.dtd" >
<svg xmlns="http://www.w3.org/2000/svg" xmlns:xlink="http://www.w3.org/1999/xlink" version="1.1">
<metadata>
Created by FontForge 20170731 at Tue Jul 16 12:49:58 2013
 By Aleksey,,,
Copyright (c) 2013 by Total Identity. All rights reserved.
</metadata>
<defs>
<font id="LGSmart-BoldItalic" horiz-adv-x="520" >
  <font-face 
    font-family="LG Smart"
    font-weight="700"
    font-style="italic"
    font-stretch="normal"
    units-per-em="1000"
    panose-1="2 11 8 2 4 4 2 13 2 3"
    ascent="716"
    descent="-284"
    x-height="423"
    cap-height="608"
    bbox="-133 -278 931 857"
    underline-thickness="80"
    underline-position="-300"
    slope="-12"
    unicode-range="U+000D-FB02"
  />
<missing-glyph horiz-adv-x="503" 
d="M68 608h367v-608h-367v608zM389 41v526h-275v-526h275zM229 193v23q0 34 12.5 59.5t27.5 46.5t27.5 40t12.5 42q0 25 -16.5 41t-48.5 16q-22 0 -40 -8t-29 -16l-16 30q18 14 40 22t45 8q49 0 77 -25.5t28 -66.5q0 -27 -12.5 -48.5t-27.5 -42t-27.5 -44t-12.5 -54.5v-23
h-40zM272 111h-45v38h45v-38z" />
    <glyph glyph-name="fi" unicode="fi" horiz-adv-x="516" 
d="M130 423l10 49q10 49 31.5 82t53.5 52.5t74.5 27.5t94.5 8q42 0 87.5 -4.5t76.5 -13.5l-25 -113h-125l13 50q-12 2 -23 2h-19q-30 0 -51 -8.5t-35 -21.5t-21.5 -30t-10.5 -33l-9 -47h261l-90 -423h-122l72 335h-138l-79 -370q-10 -48 -30.5 -80.5t-49 -52.5t-63.5 -28.5
t-74 -8.5q-37 0 -72 8l30 88q10 -3 21 -5t22 -2q82 0 97 74l77 377h-72l18 88h70z" />
    <glyph glyph-name="fl" unicode="fl" horiz-adv-x="536" 
d="M483 -3q-5 -1 -10 -1q-5 -1 -11 -1h-11q-59 0 -86.5 22t-27.5 69q0 23 6 50l89 421q-13 2 -24 3t-19 1q-60 0 -88.5 -25.5t-35.5 -58.5l-11 -54h98l-19 -88h-98l-79 -370q-10 -48 -30.5 -80.5t-49 -52.5t-63.5 -28.5t-74 -8.5q-37 0 -72 8l30 88q10 -3 21 -5t22 -2
q82 0 97 74l77 377h-72l18 88h72l10 49q10 49 32.5 82t56 52.5t77 27.5t96.5 8q42 0 82.5 -5t81.5 -14l-102 -479q-6 -26 -6 -37q0 -14 9 -19.5t32 -6.5z" />
    <glyph glyph-name=".notdef" horiz-adv-x="503" 
d="M68 608h367v-608h-367v608zM389 41v526h-275v-526h275zM229 193v23q0 34 12.5 59.5t27.5 46.5t27.5 40t12.5 42q0 25 -16.5 41t-48.5 16q-22 0 -40 -8t-29 -16l-16 30q18 14 40 22t45 8q49 0 77 -25.5t28 -66.5q0 -27 -12.5 -48.5t-27.5 -42t-27.5 -44t-12.5 -54.5v-23
h-40zM272 111h-45v38h45v-38z" />
    <glyph glyph-name=".null" horiz-adv-x="0" 
 />
    <glyph glyph-name="nonmarkingreturn" unicode="&#xd;" horiz-adv-x="200" 
 />
    <glyph glyph-name="NULL" horiz-adv-x="0" 
 />
    <glyph glyph-name="NULL" horiz-adv-x="0" 
 />
    <glyph glyph-name="space" unicode=" " horiz-adv-x="216" 
 />
    <glyph glyph-name="exclam" unicode="!" horiz-adv-x="245" 
d="M164 175h-97l72 433h138zM42 115h123l-25 -115h-122z" />
    <glyph glyph-name="quotedbl" unicode="&#x22;" horiz-adv-x="438" 
d="M116 380l40 254h113l-69 -254h-84zM296 380l40 254h113l-69 -254h-84z" />
    <glyph glyph-name="numbersign" unicode="#" horiz-adv-x="487" 
d="M448 287h-66l-18 -83h66l-17 -82h-66l-12 -57h-86l12 57h-70l-12 -57h-86l12 57h-65l17 82h65l18 83h-65l17 82h66l12 57h86l-12 -57h70l12 57h86l-12 -57h65zM208 204h70l18 83h-70z" />
    <glyph glyph-name="dollar" unicode="$" horiz-adv-x="486" 
d="M320 696h67l-166 -778h-66zM61 122q32 -15 69 -23t70 -8q26 0 50 4.5t42 14t29 24.5t11 35q0 22 -12 35t-20 17q-32 17 -66 30.5t-69 30.5q-40 20 -64 53t-24 77q0 51 18.5 90t53 64.5t82 38.5t106.5 13q46 0 91 -8.5t83 -28.5l-50 -89q-25 11 -57.5 19.5t-74.5 8.5
q-51 0 -87 -18.5t-36 -59.5q0 -24 14 -38t28 -21q26 -13 62 -27t67 -31q33 -18 57 -50t24 -80q0 -51 -19.5 -89.5t-54.5 -64t-83 -38.5t-106 -13q-49 0 -95.5 10t-91.5 32z" />
    <glyph glyph-name="percent" unicode="%" horiz-adv-x="619" 
d="M227 499q0 25 -7 39t-23 14q-12 0 -25 -7.5t-23.5 -24t-17.5 -43t-7 -64.5q0 -26 7.5 -40t24.5 -14q12 0 24.5 7t23 23.5t17 43.5t6.5 66zM467 57q12 0 24.5 7t23 23.5t17 43.5t6.5 66q0 24 -7 38.5t-23 14.5q-12 0 -25 -7.5t-23.5 -24t-17.5 -43t-7 -65.5q0 -25 7.5 -39
t24.5 -14zM95 -30h-105l572 668h105zM621 197q0 -42 -10.5 -79.5t-31.5 -66t-52 -45t-73 -16.5q-53 0 -77.5 32.5t-24.5 84.5q0 40 9.5 77.5t30 67t52.5 47t77 17.5q51 0 75.5 -33t24.5 -86zM143 292q-53 0 -77.5 33t-24.5 84q0 40 9.5 78t30 67t52.5 46.5t77 17.5
q51 0 75.5 -32.5t24.5 -85.5q0 -42 -10.5 -79.5t-31.5 -66t-52 -45.5t-73 -17z" />
    <glyph glyph-name="ampersand" unicode="&#x26;" horiz-adv-x="556" 
d="M7 134q0 71 38.5 118t123.5 82q-12 26 -20.5 54t-8.5 54q0 80 52.5 128t147.5 48q35 0 63.5 -10.5t49 -28.5t32 -42t11.5 -51q0 -38 -14.5 -66.5t-38.5 -51t-56 -39.5t-67 -31l62 -98q25 32 44.5 65.5t33.5 65.5l99 -25q-32 -55 -62.5 -102t-62.5 -85l76 -119h-130
l-28 43q-38 -26 -81.5 -39.5t-97.5 -13.5q-36 0 -66.5 10.5t-52.5 29t-34.5 45t-12.5 59.5zM204 89q50 0 97 33l-86 134q-40 -20 -61 -43.5t-21 -55.5t20.5 -50t50.5 -18zM253 445q0 -18 6 -36.5t15 -36.5q23 8 42.5 16.5t34 20.5t22.5 28t8 38q0 21 -16 35t-36 14
q-35 0 -55.5 -21t-20.5 -58z" />
    <glyph glyph-name="quotesingle" unicode="'" horiz-adv-x="258" 
d="M116 380l40 254h113l-69 -254h-84z" />
    <glyph glyph-name="parenleft" unicode="(" horiz-adv-x="328" 
d="M44 147q0 163 72 292t213 229l52 -69q-107 -80 -165.5 -199.5t-58.5 -257.5q0 -71 16 -139t54 -134l-75 -53q-55 71 -81.5 154.5t-26.5 176.5z" />
    <glyph glyph-name="parenright" unicode=")" horiz-adv-x="327" 
d="M299 337q0 -163 -72 -292t-213 -229l-52 69q107 80 165.5 199.5t58.5 257.5q0 71 -16 138.5t-54 134.5l75 53q55 -71 81.5 -154.5t26.5 -176.5z" />
    <glyph glyph-name="asterisk" unicode="*" horiz-adv-x="420" 
d="M311 479l126 59l11 -123l-131 -20l77 -96l-122 -71l-33 114l-81 -114l-92 71l115 96l-119 20l63 123l100 -59l7 128h127z" />
    <glyph glyph-name="plus" unicode="+" 
d="M80 293h145l32 151h103l-33 -151h147l-20 -97h-147l-32 -150h-102l31 150h-145z" />
    <glyph glyph-name="comma" unicode="," horiz-adv-x="236" 
d="M-48 -101q24 28 39 54t25.5 51.5t17 52t12.5 56.5h110q-10 -46 -23 -82.5t-30.5 -67.5t-39.5 -58t-49 -54z" />
    <glyph glyph-name="hyphen" unicode="-" horiz-adv-x="328" 
d="M278 165h-244l22 103h244z" />
    <glyph glyph-name="period" unicode="." horiz-adv-x="236" 
d="M130 0h-122l24 115h123z" />
    <glyph glyph-name="slash" unicode="/" horiz-adv-x="350" 
d="M328 638h116l-379 -668h-116z" />
    <glyph glyph-name="zero" unicode="0" 
d="M230 82q31 0 55.5 16.5t43 44t31 62t21 70.5t12 70.5t3.5 60.5q0 19 -3 39.5t-11.5 38t-23.5 29t-39 11.5q-31 0 -55.5 -16.5t-43 -44t-31 -62t-21 -70.5t-12 -70.5t-3.5 -60.5q0 -19 3 -39.5t11.5 -38t23.5 -29t39 -11.5zM214 -11q-37 0 -69 12t-56 37.5t-38 64
t-14 91.5q0 43 6.5 91t21 95t37.5 90t56 75.5t77.5 52t100.5 19.5q37 0 69 -12t56 -37.5t38 -64t14 -91.5q0 -43 -6.5 -91t-21 -95t-37.5 -90t-56 -75.5t-77.5 -52t-100.5 -19.5z" />
    <glyph glyph-name="one" unicode="1" 
d="M293 491l-133 -58l-30 74l228 101h84l-130 -608h-124z" />
    <glyph glyph-name="two" unicode="2" 
d="M-1 0l14 65l269 225q48 40 75 73t27 76q0 22 -9 38t-22.5 26t-30 15t-31.5 5q-49 0 -88 -12t-70 -32l-25 82q47 26 102 41.5t123 15.5q40 0 74.5 -9t59.5 -27.5t39 -46.5t14 -66q0 -39 -13.5 -71.5t-36 -61t-51 -54t-58.5 -50.5l-166 -136h265l-20 -96h-441z" />
    <glyph glyph-name="three" unicode="3" 
d="M387 327q42 -15 68 -45.5t26 -76.5q0 -54 -21 -94.5t-58.5 -67t-89 -40t-111.5 -13.5q-69 0 -122 19.5t-84 54.5l68 72q23 -22 63 -36.5t85 -14.5q30 0 55 6t44 18t29.5 30.5t10.5 43.5q0 38 -33 62.5t-96 24.5q-13 0 -27.5 -1.5t-29.5 -3.5l19 97h42q22 0 49.5 3.5
t51.5 13.5t40 28.5t16 48.5q0 34 -27.5 49.5t-64.5 15.5q-42 0 -76 -11t-59 -27l-38 78q35 23 88 40t116 17q41 0 76.5 -9t62 -26.5t42 -44t15.5 -61.5q0 -30 -11 -55t-29 -43.5t-41.5 -31.5t-48.5 -20z" />
    <glyph glyph-name="four" unicode="4" 
d="M425 216h78l-19 -90h-78l-27 -126h-124l27 126h-279l15 69l301 413h189zM364 512h-8l-208 -296h153z" />
    <glyph glyph-name="five" unicode="5" 
d="M85 137q20 -21 55.5 -35.5t77.5 -14.5q61 0 97 28t36 85q0 26 -11 44.5t-30 30t-45.5 17t-57.5 5.5h-113l70 311h357l-19 -92h-236l-28 -129h16q48 0 89.5 -9.5t72 -29.5t48.5 -51.5t18 -75.5q0 -58 -19 -101.5t-54.5 -72t-85.5 -43t-112 -14.5q-66 0 -120 21t-81 56z
" />
    <glyph glyph-name="six" unicode="6" 
d="M498.003 505.006q-19.998 9 -46.9971 13.5q-26.998 4.49902 -52.9961 4.49902q-39.998 0 -72.9961 -11.999t-58.4961 -33.498q-25.499 -21.499 -44.4971 -51.4971q-18.999 -29.998 -31.998 -64.9961q28.998 14.999 62.4961 22.999q33.498 7.99902 62.4961 7.99902
q41.9971 0 73.4951 -11.499t52.9971 -31.998t32.498 -48.9971t10.999 -62.4961q0 -53.9971 -18.999 -99.4941q-18.998 -45.4971 -53.9961 -78.4951t-83.4951 -51.4971q-48.4971 -18.498 -107.493 -18.498q-88.9951 0 -135.992 48.4971t-46.9971 138.491
q0 79.9951 21.999 158.49q21.998 78.4951 66.9961 141.491q44.9971 62.9961 114.992 101.994q69.9961 38.9971 165.99 38.9971q40.9971 0 74.4951 -6.99902q33.498 -7 60.4971 -18.999zM282.017 295.02q-27.998 0 -57.4971 -7.5q-29.498 -7.5 -57.4961 -24.498
q-6 -41.998 -6 -84.9951q0 -19.999 4 -37.998t12.999 -31.498q9 -13.499 23.999 -21.499q14.999 -7.99902 35.998 -7.99902q27.998 0 51.4961 10.999q23.499 11 40.498 30.498q16.999 19.499 26.498 44.998q9.5 25.498 9.5 53.4961q0 34.998 -21.999 55.4971
t-61.9961 20.499z" />
    <glyph glyph-name="seven" unicode="7" 
d="M400 514h-307l20 94h448l-14 -63l-332 -545h-130z" />
    <glyph glyph-name="eight" unicode="8" 
d="M164 317q-32 20 -51 48.5t-19 70.5q0 41 18.5 74.5t51.5 57.5t79.5 37t102.5 13q88 0 136 -37t48 -100q0 -33 -11 -60t-28 -47t-39.5 -34.5t-44.5 -22.5q37 -20 58 -49t21 -77q0 -50 -19.5 -87.5t-55 -62.5t-86 -38t-112.5 -13q-94 0 -146.5 40t-52.5 111q0 37 13.5 66.5
t35 51t48.5 36t53 22.5zM271 265q-56 0 -88 -30.5t-32 -81.5q0 -35 20 -54t61 -19q55 0 86.5 31t31.5 79q0 35 -20.5 55t-58.5 20zM327 528q-47 -1 -76 -27.5t-29 -71.5q0 -32 18 -51t54 -19q47 0 74.5 25t27.5 69q0 31 -15 53t-54 22z" />
    <glyph glyph-name="nine" unicode="9" 
d="M54 102q20 -9 47 -13.5t53 -4.5q40 0 73 12t58.5 33.5t44.5 51.5t32 65q-29 -15 -62.5 -23t-62.5 -8q-42 0 -73.5 11.5t-53 32t-32.5 49t-11 62.5q0 54 19 99.5t54 78.5t83.5 51.5t107.5 18.5q89 0 136 -48.5t47 -138.5q0 -80 -22 -158.5t-67 -141.5t-115 -102t-166 -39
q-41 0 -74.5 7t-60.5 19zM270 312q28 0 57.5 7.5t57.5 24.5q6 42 6 85q0 20 -4 38t-13 31.5t-24 21.5t-36 8q-28 0 -51.5 -11t-40.5 -30.5t-26.5 -45t-9.5 -53.5q0 -35 22 -55.5t62 -20.5z" />
    <glyph glyph-name="colon" unicode=":" horiz-adv-x="236" 
d="M194 308h-122l24 115h123zM130 0h-122l24 115h123z" />
    <glyph glyph-name="semicolon" unicode=";" horiz-adv-x="236" 
d="M-43 -101q24 28 39 54t25.5 51.5t17 52t12.5 56.5h110q-10 -46 -23 -82.5t-30.5 -67.5t-39.5 -58t-49 -54zM200 308h-122l24 115h123z" />
    <glyph glyph-name="less" unicode="&#x3c;" 
d="M285 -11l-195 256l304 256l63 -70l-227 -192l139 -184z" />
    <glyph glyph-name="equal" unicode="=" 
d="M73 272l20 95h400l-20 -95h-400zM41 123l20 95h400l-20 -95h-400z" />
    <glyph glyph-name="greater" unicode="&#x3e;" 
d="M245.018 500.999l194.988 -255.984l-303.981 -255.984l-62.9961 69.9961l226.985 191.988l-138.991 183.988z" />
    <glyph glyph-name="question" unicode="?" horiz-adv-x="413" 
d="M188 0h-122l24 115h123zM108 176l12 58q10 50 39.5 83.5t61 59t56 46.5t24.5 47q0 28 -22.5 39t-51.5 11q-32 0 -62.5 -7.5t-54.5 -19.5l-12 88q37 17 80 27t91 10q34 0 65 -8t54.5 -23.5t37.5 -38.5t14 -54q0 -33 -14 -58.5t-36 -47t-48 -41t-49.5 -40t-42 -44
t-24.5 -53.5l-7 -34h-111z" />
    <glyph glyph-name="at" unicode="@" horiz-adv-x="934" 
d="M521 433q19 0 40 -1.5t41.5 -5t39.5 -9t33 -12.5l-46 -232q-2 -8 -3 -17.5t-1 -17.5q0 -19 9.5 -34t32.5 -15q31 0 54 15t38 41t22.5 61.5t7.5 77.5q0 70 -16.5 116.5t-49.5 74t-82.5 39t-116.5 11.5q-181 0 -277 -99.5t-96 -293.5q0 -70 16.5 -117.5t49 -77t79 -42.5
t106.5 -13q47 0 85.5 5.5t85.5 18.5l26 -88q-45 -14 -94.5 -22.5t-104.5 -8.5q-174 0 -268.5 83t-94.5 262q0 120 35 211t99.5 152t155.5 92t203 31q90 0 159.5 -18.5t117 -58.5t72 -104t24.5 -155q0 -58 -15 -110t-45.5 -91.5t-76.5 -62.5t-108 -23q-42 0 -73 15t-49 46
q-26 -29 -63 -47.5t-91 -18.5q-74 0 -109.5 43.5t-35.5 114.5q0 141 73 213t211 72zM413 77q24 0 47.5 13t42.5 42l46 216q-8 2 -15.5 2h-15.5q-84 0 -121.5 -50t-37.5 -138q0 -44 15.5 -64.5t38.5 -20.5z" />
    <glyph glyph-name="A" unicode="A" horiz-adv-x="587" 
d="M405 0l-18 157h-216l-80 -157h-133l330 608h164l87 -608h-134zM222 256h155l-23 256h-8z" />
    <glyph glyph-name="B" unicode="B" horiz-adv-x="536" 
d="M419 322q36 -13 63 -42.5t27 -71.5q0 -53 -19.5 -92t-54.5 -64.5t-84 -38.5t-108 -13h-234l129 608h207q41 0 77.5 -5.5t64 -20t43.5 -39.5t16 -63q0 -59 -36.5 -100.5t-90.5 -57.5zM377 205q0 30 -24 47.5t-61 17.5h-105l-37 -173h92q24 0 48.5 5t43.5 17.5t31 33
t12 52.5zM238 511l-32 -148h100q21 0 40.5 5t34.5 16t24 27t9 39q0 30 -21.5 45.5t-53.5 15.5h-101z" />
    <glyph glyph-name="C" unicode="C" horiz-adv-x="535" 
d="M307 -10q-60 0 -108.5 15.5t-83.5 46.5t-54 78t-19 109q0 74 21.5 142.5t64.5 121t107 84t150 31.5q57 0 107 -16.5t88 -55.5l-74 -72q-24 23 -55.5 35t-73.5 12q-55 0 -94.5 -23.5t-65 -62.5t-38 -89t-12.5 -102q0 -34 9 -62.5t28.5 -49.5t51.5 -32.5t78 -11.5
q37 0 65.5 7t60.5 19l9 -94q-28 -13 -71 -21.5t-91 -8.5z" />
    <glyph glyph-name="D" unicode="D" horiz-adv-x="599" 
d="M320 608q66 0 117 -17t85.5 -48t52 -74.5t17.5 -97.5q0 -95 -29 -165t-82 -116t-126.5 -68t-162.5 -22h-183l129 608h182zM208 95q58 0 105 17.5t80.5 51.5t51.5 82.5t18 110.5q0 73 -42 114t-118 41h-64l-88 -417h57z" />
    <glyph glyph-name="E" unicode="E" horiz-adv-x="492" 
d="M425 98l-21 -98h-395l129 608h385l-21 -98h-260l-32 -149h252l-20 -96h-252l-36 -167h271z" />
    <glyph glyph-name="F" unicode="F" horiz-adv-x="471" 
d="M133 0h-124l129 608h377l-21 -98h-252l-32 -149h234l-21 -96h-233z" />
    <glyph glyph-name="G" unicode="G" horiz-adv-x="595" 
d="M392 618q64 0 123 -16.5t98 -52.5l-69 -76q-23 20 -62 34t-90 14q-56 0 -98 -19.5t-70.5 -55t-43 -85.5t-14.5 -110q0 -77 44 -122t136 -45q13 0 26 1t27 4l31 147h-120l20 95h242l-68 -315q-45 -14 -88 -20t-93 -6q-62 0 -113.5 15.5t-88.5 46.5t-58 77.5t-21 109.5
q0 88 26.5 158.5t73 119.5t111 75t139.5 26z" />
    <glyph glyph-name="H" unicode="H" horiz-adv-x="599" 
d="M624 608l-129 -608h-124l54 255h-238l-54 -255h-124l129 608h125l-55 -254h238l54 254h124z" />
    <glyph glyph-name="I" unicode="I" horiz-adv-x="238" 
d="M138 608h125l-130 -608h-124z" />
    <glyph glyph-name="J" unicode="J" horiz-adv-x="327" 
d="M359 608l-98 -459q-9 -44 -26 -74t-42 -48t-58.5 -26t-76.5 -8q-19 0 -43 2.5t-45 9.5l21 93q29 -8 57 -8q38 0 61 18.5t33 63.5l92 436h125z" />
    <glyph glyph-name="K" unicode="K" horiz-adv-x="533" 
d="M133 0h-124l129 608h125l-55 -256h43l234 256h144l-287 -308l161 -300h-141l-131 256h-43z" />
    <glyph glyph-name="L" unicode="L" horiz-adv-x="428" 
d="M393 98l-21 -98h-363l129 608h125l-109 -510h239z" />
    <glyph glyph-name="M" unicode="M" horiz-adv-x="758" 
d="M783 608l-129 -608h-124l109 512h-8l-216 -512h-165v512h-8l-109 -512h-124l129 608h216v-512h7l210 512h212z" />
    <glyph glyph-name="N" unicode="N" horiz-adv-x="647" 
d="M674 608l-130 -608h-214l-80 512h-8l-109 -512h-124l129 608h215l80 -512h7l109 512h125z" />
    <glyph glyph-name="O" unicode="O" horiz-adv-x="626" 
d="M272 -10q-113 0 -171.5 57.5t-58.5 171.5q0 91 24.5 165t69.5 126t109 80t144 28q113 0 171.5 -58t58.5 -171q0 -92 -24.5 -166t-70 -126t-109.5 -79.5t-143 -27.5zM373 525q-41 0 -77 -21t-64 -59.5t-44 -94t-16 -124.5t30 -105t84 -36q40 0 76.5 20.5t64.5 59.5
t44 94.5t16 124.5q0 70 -30 105.5t-84 35.5z" />
    <glyph glyph-name="P" unicode="P" horiz-adv-x="514" 
d="M9 0l129 608h193q101 0 155.5 -38.5t54.5 -122.5q0 -59 -21.5 -102t-58.5 -71t-86 -41.5t-104 -13.5h-92l-47 -219h-123zM199 315h81q25 0 48.5 7t41.5 21.5t29 37t11 52.5q0 22 -8.5 37t-22.5 24t-32 12.5t-38 3.5h-68z" />
    <glyph glyph-name="Q" unicode="Q" horiz-adv-x="626" 
d="M319 16l95 62q35 -37 64 -72.5t64 -72.5q-28 -17 -49.5 -33t-50.5 -33zM272 -10q-113 0 -171.5 57.5t-58.5 171.5q0 91 24.5 165t69.5 126t109 80t144 28q113 0 171.5 -58t58.5 -171q0 -92 -24.5 -166t-70 -126t-109.5 -79.5t-143 -27.5zM373 525q-41 0 -77 -21
t-64 -59.5t-44 -94t-16 -124.5t30 -105t84 -36q40 0 76.5 20.5t64.5 59.5t44 94.5t16 124.5q0 70 -30 105.5t-84 35.5z" />
    <glyph glyph-name="R" unicode="R" horiz-adv-x="540" 
d="M254 239h-71l-51 -239h-123l129 608h205q45 0 83.5 -7.5t66.5 -25.5t44 -47t16 -71q0 -45 -13.5 -79.5t-36.5 -59.5t-55.5 -41.5t-69.5 -26.5l99 -250h-135zM203 335h107q20 0 40 5.5t36 18t26 33.5t10 51q0 21 -10 34t-25.5 20.5t-34 10t-35.5 2.5h-76z" />
    <glyph glyph-name="S" unicode="S" horiz-adv-x="498" 
d="M60 122q32 -15 69 -23t70 -8q26 0 50 4.5t42 14t29 24.5t11 35q0 22 -12 35t-20 17q-32 17 -66 30.5t-69 30.5q-40 20 -64 53t-24 77q0 51 18.5 90t53 64.5t82 38.5t106.5 13q46 0 91 -8.5t83 -28.5l-50 -89q-25 11 -57.5 19.5t-74.5 8.5q-51 0 -87 -18.5t-36 -59.5
q0 -24 14 -38t28 -21q26 -13 62 -27t67 -31q33 -18 57 -50t24 -80q0 -51 -19.5 -89.5t-54.5 -64t-83 -38.5t-106 -13q-49 0 -95.5 10t-91.5 32z" />
    <glyph glyph-name="T" unicode="T" horiz-adv-x="500" 
d="M564 608l-20 -98h-174l-108 -510h-124l108 510h-173l21 98h470z" />
    <glyph glyph-name="U" unicode="U" horiz-adv-x="578" 
d="M608 608l-77 -365q-29 -134 -100.5 -193.5t-187.5 -59.5q-67 0 -108.5 20.5t-62 58t-21.5 88.5t12 113l71 338h124l-79 -373q-6 -26 -7 -52.5t6 -48t25.5 -35t51.5 -13.5t57.5 9t42.5 28.5t31 50.5t22 76l76 358h124z" />
    <glyph glyph-name="V" unicode="V" horiz-adv-x="548" 
d="M497 608h129l-303 -608h-164l-76 608h126l48 -511h8z" />
    <glyph glyph-name="W" unicode="W" horiz-adv-x="860" 
d="M662 0h-176l10 512h-8l-186 -512h-179l-31 608h125l13 -511h8l184 511h182l-12 -511h8l200 511h126z" />
    <glyph glyph-name="X" unicode="X" horiz-adv-x="550" 
d="M92 0h-138l249 314l-109 294h135l72 -225h17l159 225h140l-229 -295l117 -313h-135l-83 246h-18z" />
    <glyph glyph-name="Y" unicode="Y" horiz-adv-x="535" 
d="M286 0h-124l61 239q-18 39 -37 87.5t-37.5 99t-36.5 98t-36 84.5h132l86 -259h8l184 259h131l-279 -369z" />
    <glyph glyph-name="Z" unicode="Z" horiz-adv-x="524" 
d="M152 97h312l-19 -97h-463l14 77l399 435h-292l19 96h443l-16 -77z" />
    <glyph glyph-name="bracketleft" unicode="[" horiz-adv-x="315" 
d="M199 -184h-249l173 815h249l-20 -97h-127l-132 -623h126z" />
    <glyph glyph-name="backslash" unicode="\" horiz-adv-x="350" 
d="M302 -30h-116l-95 668h116z" />
    <glyph glyph-name="bracketright" unicode="]" horiz-adv-x="315" 
d="M-28 -89h127l133 623h-127l20 97h249l-173 -815h-249z" />
    <glyph glyph-name="asciicircum" unicode="^" horiz-adv-x="417" 
d="M381 608l34 -323h-103l-28 240h-8l-128 -240h-110l172 323h171z" />
    <glyph glyph-name="underscore" unicode="_" horiz-adv-x="383" 
d="M-23 -40h326l-18 -82h-325z" />
    <glyph glyph-name="grave" unicode="`" horiz-adv-x="487" 
d="M326 634l72 -146h-107l-97 146h132z" />
    <glyph glyph-name="a" unicode="a" horiz-adv-x="466" 
d="M282 37q-25 -24 -57 -35.5t-70 -11.5q-65 0 -99.5 39.5t-34.5 111.5q0 76 20.5 131t54 91t77.5 53t92 17q26 0 52.5 -5t50.5 -19l7 14h91l-59 -262l-22 -161h-97zM208 70q36 0 64 20l55 259q-23 9 -41 9q-34 0 -60 -14.5t-43.5 -41t-27 -63t-9.5 -80.5q0 -41 14 -65
t48 -24z" />
    <glyph glyph-name="b" unicode="b" horiz-adv-x="467" 
d="M210 406q43 27 102 27q61 0 97 -41t36 -110q0 -55 -15.5 -107.5t-47 -93t-79 -65t-111.5 -24.5q-24 0 -48 4t-46 15l-6 -11h-91l135 626l125 16zM258 353q-36 0 -64 -20l-56 -258q11 -5 20.5 -6t18.5 -1q39 0 67 18t45 46.5t25 64.5t8 73q0 36 -16.5 59.5t-47.5 23.5z
" />
    <glyph glyph-name="c" unicode="c" horiz-adv-x="405" 
d="M345 27q-26 -16 -62 -26.5t-88 -10.5q-46 0 -78.5 12t-53.5 34.5t-31 54.5t-10 71q0 63 19 113.5t53.5 85.5t82 53.5t104.5 18.5q44 0 85 -12.5t61 -33.5l-73 -70q-27 34 -83 34q-28 0 -51.5 -12.5t-40 -35.5t-26 -55t-9.5 -71q0 -49 21.5 -76.5t66.5 -27.5q31 0 59 8.5
t54 20.5v-75z" />
    <glyph glyph-name="d" unicode="d" horiz-adv-x="465" 
d="M281 0l-4 30q-47 -40 -121 -40q-65 0 -99.5 39.5t-34.5 111.5q0 78 21.5 133.5t57.5 91t84 51.5t101 16q34 0 58 -7l43 200l126 16l-112 -528l-16 -114h-104zM209 70q37 0 65 20l54 257q-20 7 -38 7q-69 0 -106 -53.5t-37 -141.5q0 -41 14 -65t48 -24z" />
    <glyph glyph-name="e" unicode="e" horiz-adv-x="449" 
d="M383 35q-14 -8 -35 -15.5t-45.5 -14.5t-51 -11t-52.5 -4q-38 0 -70 8.5t-56 27.5t-37.5 49t-13.5 73q0 57 16 108.5t49 90.5t82 62.5t115 23.5q73 0 114 -28.5t41 -82.5q0 -49 -27 -79.5t-69.5 -48t-94.5 -25.5t-102 -11v-11q0 -36 21 -54t68 -18q45 0 82.5 10.5
t65.5 24.5v-75zM265 354q-27 0 -46 -10.5t-32.5 -28t-22 -40.5t-12.5 -47q33 2 63 6.5t52.5 13.5t36 23t13.5 37q0 22 -14.5 34t-37.5 12z" />
    <glyph glyph-name="f" unicode="f" horiz-adv-x="336" 
d="M346 553q-42 0 -63.5 -18t-29.5 -56l-11 -56h125l-19 -88h-124l-79 -376q-10 -48 -29 -80.5t-45.5 -52.5t-60 -28.5t-72.5 -8.5q-13 0 -26 1t-24 3l24 87q7 -1 13.5 -1.5t13.5 -0.5q42 0 60.5 18t26.5 56l77 383h-72l19 88h70l10 49q9 48 29.5 80.5t49 52.5t64 28.5
t74.5 8.5q28 0 53.5 -4t45.5 -13l-43 -85q-25 13 -57 13z" />
    <glyph glyph-name="g" unicode="g" horiz-adv-x="466" 
d="M267 433q26 0 52 -5t49 -19l8 14h91l-93 -434q-12 -55 -34.5 -93.5t-54.5 -62.5t-72.5 -35t-87.5 -11q-37 0 -75 5.5t-61 13.5l34 88q15 -6 42.5 -12t62.5 -6q45 0 78 20t44 71l11 52q-44 -29 -103 -29q-65 0 -100 39.5t-35 111.5q0 76 20 131t54 91t78 53t92 17zM211 69
q35 0 63 20l54 257q-11 5 -21 7t-19 2q-69 0 -104.5 -53.5t-35.5 -142.5q0 -40 14 -65t49 -25z" />
    <glyph glyph-name="h" unicode="h" horiz-adv-x="458" 
d="M3 0l133 626l126 16l-53 -246q27 18 56.5 27.5t58.5 9.5q61 0 88 -26t27 -76q0 -13 -2 -27t-5 -30l-58 -274h-123l56 259l4 22t2 22q0 17 -7.5 28.5t-30.5 11.5q-45 0 -87 -48l-63 -295h-122z" />
    <glyph glyph-name="i" unicode="i" horiz-adv-x="215" 
d="M111 511l20 97h125l-21 -97h-124zM3 0l90 423h122l-90 -423h-122z" />
    <glyph glyph-name="j" unicode="j" horiz-adv-x="213" 
d="M-105 -213l19 87h10q32 0 46 17t23 60l101 472h121l-97 -457q-11 -52 -28.5 -86.5t-44 -55t-62 -29t-81.5 -8.5h-7zM111 513l20 95h124l-21 -95h-123z" />
    <glyph glyph-name="k" unicode="k" horiz-adv-x="438" 
d="M3 0l133 626l125 16l-79 -368h29l147 149h135l-198 -196l117 -227h-134l-87 183h-28l-39 -183h-121z" />
    <glyph glyph-name="l" unicode="l" horiz-adv-x="229" 
d="M172 -3q-5 -1 -10 -1q-5 -1 -11 -1h-11q-59 0 -86.5 22t-27.5 69q0 23 6 50l104 490l125 16l-106 -498q-6 -26 -6 -37q0 -14 9 -19.5t32 -6.5z" />
    <glyph glyph-name="m" unicode="m" horiz-adv-x="680" 
d="M3 0l55 257l25 166h98v-47q29 27 65 42t71 15q81 0 101 -54q30 26 65 40t69 14q57 0 83 -26t26 -75q0 -13 -2 -27.5t-5 -30.5l-58 -274h-123l56 259q2 11 3.5 22.5t1.5 22.5q0 17 -6.5 28t-24.5 11q-43 0 -80 -45l-4 -24l-58 -274h-123l56 259q2 11 3.5 22.5t1.5 22.5
q0 17 -6.5 28t-24.5 11q-41 0 -79 -43l-64 -300h-122z" />
    <glyph glyph-name="n" unicode="n" horiz-adv-x="458" 
d="M3 0l55 257l25 166h98v-48q31 27 69 42.5t74 15.5q61 0 88 -26t27 -76q0 -13 -2 -27t-5 -30l-58 -274h-123l56 259l4 22t2 22q0 17 -7.5 28.5t-30.5 11.5q-45 0 -87 -47l-63 -296h-122z" />
    <glyph glyph-name="o" unicode="o" horiz-adv-x="476" 
d="M188 -10q-89 0 -128 41t-39 111q0 66 18.5 119.5t53 92t84.5 59t113 20.5q89 0 128.5 -42t39.5 -112q0 -66 -18.5 -119.5t-53.5 -91t-85 -58t-113 -20.5zM206 72q27 0 50.5 14t41 40t27 63t9.5 84q0 32 -15 55.5t-47 23.5q-27 0 -50 -14t-40 -40.5t-26.5 -64t-9.5 -83.5
q0 -33 14.5 -55.5t45.5 -22.5z" />
    <glyph glyph-name="p" unicode="p" horiz-adv-x="468" 
d="M68 309l16 114h104l2 -33q51 43 124 43q62 0 98 -41t36 -110q0 -58 -16.5 -110.5t-48.5 -92.5t-79.5 -63.5t-109.5 -23.5q-36 0 -69 9l-42 -198l-126 -16zM260 353q-38 0 -65 -21l-55 -257q11 -5 20.5 -6t18.5 -1q40 0 67.5 18.5t45 47.5t25 65t7.5 71q0 37 -16 60
t-48 23z" />
    <glyph glyph-name="q" unicode="q" horiz-adv-x="468" 
d="M260 17q-44 -27 -102 -27q-61 0 -97 41t-36 110q0 55 15.5 107.5t47 93t79 65t111.5 24.5q24 0 47.5 -4t46.5 -15l6 11h91l-134 -620l-125 -16zM293 355q-39 0 -67 -18t-45 -46.5t-25 -64.5t-8 -73q0 -36 16.5 -59.5t47.5 -23.5q36 0 64 20l56 258q-20 7 -39 7z" />
    <glyph glyph-name="r" unicode="r" horiz-adv-x="343" 
d="M3 0l55 257l25 166h98v-65q27 35 62.5 55t80.5 20q21 0 36 -3t25 -8l-42 -97q-20 10 -46 10q-70 0 -115 -71l-57 -264h-122z" />
    <glyph glyph-name="s" unicode="s" horiz-adv-x="394" 
d="M41 106q25 -13 56.5 -21t65.5 -8q9 0 22 1t24 4.5t19 11.5t8 22q0 17 -11.5 26t-35.5 20q-11 5 -30.5 12.5t-29.5 12.5q-40 17 -63 39.5t-23 59.5q0 40 17.5 68t46.5 45.5t65.5 25.5t75.5 8q45 0 82 -8.5t57 -17.5l-35 -86q-25 13 -51.5 20t-61.5 7q-9 0 -22 -1
t-25.5 -4.5t-21 -11.5t-8.5 -22q0 -16 12 -24.5t34 -17.5q6 -3 15 -6.5t18.5 -7t18.5 -7t14 -5.5q35 -14 58.5 -37.5t23.5 -60.5q0 -42 -17 -71t-45 -47.5t-65 -26.5t-77 -8q-51 0 -84.5 8.5t-65.5 22.5z" />
    <glyph glyph-name="t" unicode="t" horiz-adv-x="353" 
d="M312 22q-35 -18 -67.5 -25t-72.5 -7q-119 0 -119 103q0 10 1.5 21t3.5 23l42 198h-70l17 78l70 8l18 81l126 21l-21 -100h140l-19 -87h-139l-36 -170l-4 -22t-2 -20q0 -18 9 -29t35 -11q25 0 46.5 4.5t41.5 12.5v-79z" />
    <glyph glyph-name="u" unicode="u" horiz-adv-x="459" 
d="M211 423l-56 -259q-2 -11 -4 -23t-2 -22q0 -17 7.5 -28t30.5 -11q45 0 86 47l64 296h122l-55 -257l-25 -166h-98v48q-32 -28 -70 -43t-73 -15q-61 0 -88 26t-27 76q0 13 2.5 29t4.5 28l58 274h123z" />
    <glyph glyph-name="v" unicode="v" horiz-adv-x="415" 
d="M83 0l-47 423h123l20 -341h8l155 341h124l-224 -423h-159z" />
    <glyph glyph-name="w" unicode="w" horiz-adv-x="654" 
d="M335 0l25 341h-8l-118 -341h-170l-15 423h120v-341h8l113 341h164l-21 -341h8l131 341h121l-192 -423h-166z" />
    <glyph glyph-name="x" unicode="x" horiz-adv-x="434" 
d="M264 0l-48 164h-14l-112 -164h-128l165 221l-77 202h133l44 -156h15l106 156h130l-160 -202l80 -221h-134z" />
    <glyph glyph-name="y" unicode="y" horiz-adv-x="426" 
d="M-37 -126q9 -2 18 -2h16q30 0 47.5 9.5t28.5 21.5q13 14 29 42t31 55l-89 423h121l44 -290h9l134 290h120l-245 -459q-21 -40 -43 -72.5t-49 -56t-61 -36t-79 -12.5q-15 0 -31 1t-30 6z" />
    <glyph glyph-name="z" unicode="z" horiz-adv-x="424" 
d="M-17 0l15 70l281 266h-217l20 87h361l-15 -70l-282 -266h228l-19 -87h-372z" />
    <glyph glyph-name="braceleft" unicode="{" horiz-adv-x="329" 
d="M158 -171q-62 0 -96.5 31.5t-34.5 84.5q0 8 1 18.5t3 17.5l27 130q1 4 2 11.5t1 12.5q0 27 -12.5 40.5t-38.5 18.5l21 100q29 4 52 23t32 60l33 156q14 65 62 99t132 34h65l-20 -97h-13q-51 0 -76.5 -17t-35.5 -62l-29 -137q-11 -50 -34 -73t-63 -30l-2 -9q28 -8 43 -23
t15 -45q0 -13 -5 -36l-29 -138q-3 -14 -3 -25q0 -29 20 -39t62 -10h13l-21 -96h-71z" />
    <glyph glyph-name="bar" unicode="|" horiz-adv-x="208" 
d="M67 -173h-93l178 837h93z" />
    <glyph glyph-name="braceright" unicode="}" horiz-adv-x="330" 
d="M190 666q62 0 96.5 -31t34.5 -84q0 -19 -4 -36l-27 -131q-3 -14 -3 -24q0 -27 14 -41.5t37 -17.5l-21 -100q-29 -4 -52 -23t-32 -60l-33 -156q-14 -64 -62 -98.5t-132 -34.5h-65l20 97h13q51 0 76.5 17t35.5 62l29 137q11 50 34 73t63 30l2 9q-28 8 -42.5 23t-14.5 45
q0 17 4 36l29 138q3 13 3 25q0 29 -20 39t-62 10h-13l21 96h71z" />
    <glyph glyph-name="asciitilde" unicode="~" horiz-adv-x="431" 
d="M24 254q28 23 66.5 38t79.5 15q22 0 38.5 -4.5t30.5 -10t28.5 -10t32.5 -4.5q23 0 46 8.5t44 19.5l34 -69q-29 -23 -67.5 -38.5t-80.5 -15.5q-22 0 -38 5t-30 10.5t-28 10.5t-32 5q-24 0 -47.5 -8.5t-44.5 -21.5z" />
    <glyph glyph-name="exclamdown" unicode="&#xa1;" horiz-adv-x="252" 
d="M210 308h-122l24 115h122zM87 248h97l-71 -433h-138z" />
    <glyph glyph-name="cent" unicode="&#xa2;" horiz-adv-x="418" 
d="M210 -85h-67l126 593h67zM337 27q-26 -16 -62 -26.5t-88 -10.5q-46 0 -78.5 12t-53.5 34.5t-31 54.5t-10 71q0 63 19 113.5t53.5 85.5t82 53.5t104.5 18.5q44 0 85 -12.5t61 -33.5l-73 -70q-27 34 -83 34q-28 0 -51.5 -12.5t-40 -35.5t-26 -55t-9.5 -71q0 -49 21.5 -76.5
t66.5 -27.5q31 0 59 8.5t54 20.5v-75z" />
    <glyph glyph-name="sterling" unicode="&#xa3;" horiz-adv-x="451" 
d="M393 618q65 0 111 -20l-52 -86q-17 9 -32 12.5t-35 3.5q-32 0 -53 -8t-34.5 -24t-21.5 -39.5t-14 -54.5l-14 -66h165l-19 -90h-165l-2 -9q-12 -53 -30 -86t-58 -53h252l-21 -98h-381l18 83q43 29 64 64.5t31 87.5l2 11h-61l19 90h61l20 94q12 55 35 91.5t55.5 58t73 30
t86.5 8.5z" />
    <glyph glyph-name="currency" unicode="&#xa4;" horiz-adv-x="445" 
d="M281 108q-38 -16 -78 -16q-42 0 -76 23l-82 -70l-54 73l83 71q-4 13 -4 33q0 34 11.5 64.5t32.5 55.5l-56 71l80 68l61 -78q20 8 40.5 12t42.5 4q27 0 51 -13l80 67l61 -77l-81 -67q6 -21 6 -41q0 -31 -9 -59t-26 -52l50 -63l-85 -68zM218 186q32 0 54.5 24t22.5 60
q0 24 -12 39t-32 15q-31 0 -54 -23.5t-23 -60.5q0 -26 12 -40t32 -14z" />
    <glyph glyph-name="yen" unicode="&#xa5;" horiz-adv-x="544" 
d="M329 159l-33 -159h-124l38 159h-167l14 68h170l7 29l-12 25h-153l14 67h111q-28 66 -55 135.5t-53 124.5h132l87 -242h8l183 242h131l-206 -260h102l-14 -67h-141l-19 -25l-6 -29h154l-14 -68h-154z" />
    <glyph glyph-name="brokenbar" unicode="&#xa6;" horiz-adv-x="208" 
d="M179 335h-93l70 329h93zM71 -173h-93l70 329h93z" />
    <glyph glyph-name="section" unicode="&#xa7;" horiz-adv-x="473" 
d="M445 233q0 -60 -31 -99t-88 -58q22 -20 36 -50t14 -66q0 -78 -61 -125.5t-173 -47.5q-91 0 -171 38l47 83q29 -14 62.5 -21.5t63.5 -7.5q65 0 91.5 20.5t26.5 48.5q0 20 -12.5 32t-19.5 15q-29 15 -59.5 27.5t-62.5 28.5q-38 18 -59.5 48.5t-21.5 72.5q0 59 28 101t85 64
q-22 20 -33.5 48t-11.5 60q0 78 58 125.5t174 47.5q42 0 83 -8t76 -26l-44 -81q-23 11 -52.5 18.5t-67.5 7.5q-60 0 -85 -19.5t-25 -48.5q0 -22 14 -34.5t27 -18.5q24 -11 56 -24.5t61 -29.5q30 -16 52.5 -46t22.5 -75zM298 258q-19 10 -38.5 18t-39.5 16q-41 -9 -58 -34
t-17 -49q0 -25 11 -39.5t30 -23.5q14 -8 31 -15t35 -15q42 11 59.5 36t17.5 48q0 24 -9 37.5t-22 20.5z" />
    <glyph glyph-name="dieresis" unicode="&#xa8;" horiz-adv-x="487" 
d="M276 511h-119l21 97h119zM460 511h-119l20 97h119z" />
    <glyph glyph-name="copyright" unicode="&#xa9;" horiz-adv-x="692" 
d="M692 372q0 -89 -31 -159.5t-84 -120t-125 -76t-154 -26.5q-59 0 -107 16.5t-81.5 48t-52 77.5t-18.5 104q0 89 30.5 159.5t84 120t125 76t153.5 26.5q59 0 107 -16.5t82 -48t52.5 -77.5t18.5 -104zM611 358q0 87 -48.5 138.5t-144.5 51.5q-67 0 -122 -23t-94.5 -63
t-61 -95t-21.5 -118q0 -88 48.5 -138.5t145.5 -50.5q66 0 121 23t94 63t61 94.5t22 117.5zM453 163q-21 -13 -51 -22t-75 -9q-71 0 -103 36t-32 98q0 46 13.5 84.5t40 67t64.5 44.5t86 16q37 0 70 -9.5t53 -29.5l-62 -57q-12 17 -27 23t-37 6q-49 0 -75.5 -37.5t-26.5 -96.5
q0 -37 17.5 -57.5t52.5 -20.5q20 0 44 7t48 19v-62z" />
    <glyph glyph-name="guillemotleft" unicode="&#xab;" horiz-adv-x="488" 
d="M332 30l-116 181l194 182l66 -63l-130 -123l76 -115zM16 211l187 182l67 -63l-125 -123l69 -115l-89 -62z" />
    <glyph glyph-name="registered" unicode="&#xae;" horiz-adv-x="410" 
d="M465 494q0 -60 -19.5 -106.5t-54 -78.5t-81.5 -48.5t-101 -16.5q-77 0 -123 42.5t-46 119.5q0 58 20 104.5t54.5 78.5t81.5 49.5t101 17.5q78 0 123 -42.5t45 -119.5zM414 485q0 58 -31 92t-96 34q-43 0 -79 -15t-61.5 -41.5t-40 -62.5t-14.5 -77q0 -59 31.5 -92.5
t95.5 -33.5q43 0 79 15t62 41.5t40 62t14 77.5zM268 341l-24 82h-20l-17 -82h-64l47 221h90q36 0 56.5 -12.5t20.5 -40.5t-14 -46.5t-37 -29.5l27 -92h-65zM258 468q14 0 22.5 8.5t8.5 22.5q0 9 -7 12.5t-14 3.5h-24l-10 -47h24z" />
    <glyph glyph-name="macron" unicode="&#xaf;" horiz-adv-x="488" 
d="M455 514h-293l19 91h293z" />
    <glyph glyph-name="degree" unicode="&#xb0;" horiz-adv-x="317" 
d="M200 335q-67 2 -102.5 36.5t-35.5 86.5q0 78 44.5 119t128.5 41q66 0 102.5 -36t36.5 -88q0 -77 -45 -117.5t-129 -41.5zM210 418q38 0 54 17t16 47q0 23 -14 38.5t-41 15.5q-37 0 -52.5 -19.5t-15.5 -45.5q0 -25 12.5 -39t40.5 -14z" />
    <glyph glyph-name="plusminus" unicode="&#xb1;" horiz-adv-x="833" 
 />
    <glyph glyph-name="twosuperior" unicode="&#xb2;" horiz-adv-x="284" 
d="M41 296l9 43l137 113q25 20 35 33t10 31q0 14 -9 23.5t-29 9.5q-23 0 -44.5 -5t-42.5 -16l-16 56q36 19 68.5 24.5t58.5 5.5q102 0 102 -82q0 -20 -6.5 -35.5t-17.5 -29t-25.5 -25.5t-30.5 -25l-71 -56h127l-13 -65h-242z" />
    <glyph glyph-name="threesuperior" unicode="&#xb3;" horiz-adv-x="284" 
d="M89 379q14 -11 33 -16.5t39 -5.5q23 0 40.5 9t17.5 30q0 17 -15 25t-37 8q-9 0 -18.5 -0.5t-18.5 -2.5l12 58h31q6 0 17 1.5t21.5 5t18.5 11t8 19.5q0 13 -10.5 20.5t-27.5 7.5q-23 0 -41 -5.5t-38 -16.5l-18 52q21 14 54 24.5t69 10.5q45 0 72.5 -18.5t27.5 -54.5
q0 -16 -6.5 -28t-16.5 -21t-22.5 -15.5t-24.5 -9.5q23 -6 37 -23.5t14 -40.5q0 -27 -11.5 -48t-31.5 -35.5t-47.5 -22.5t-60.5 -8q-35 0 -66 11t-48 31z" />
    <glyph glyph-name="acute" unicode="&#xb4;" horiz-adv-x="487" 
d="M473 634l-154 -146h-114l131 146h137z" />
    <glyph glyph-name="mu" unicode="&#xb5;" horiz-adv-x="464" 
d="M88 423h123l-46 -216q-5 -21 -10 -45t-5 -39t8 -26.5t32 -11.5q25 0 46.5 6.5t38.5 17.5l67 314h122l-65 -309l-17 -114h-113l2 26q-53 -35 -115 -35q-23 0 -43 5q-2 -12 -4.5 -28t-5.5 -38q-3 -20 -7.5 -43.5t-8.5 -44t-7 -34l-3 -13.5h-122z" />
    <glyph glyph-name="paragraph" unicode="&#xb6;" horiz-adv-x="557" 
d="M259 204h-50q-42 0 -70 10.5t-45 28.5t-24.5 43t-7.5 54q0 73 17.5 124t50.5 83t80 46.5t105 14.5h266l-172 -807l-76 -6l157 741h-79l-156 -735l-83 -6z" />
    <glyph glyph-name="periodcentered" unicode="&#xb7;" horiz-adv-x="236" 
d="M175 187h-122l24 115h123z" />
    <glyph glyph-name="cedilla" unicode="&#xb8;" horiz-adv-x="487" 
d="M84 -126q14 -5 26 -7.5t27 -2.5q25 0 40.5 8.5t15.5 32.5q0 18 -16 24t-52 12l35 58q72 -6 109 -25t37 -62q0 -57 -38.5 -89.5t-130.5 -32.5q-27 0 -53 5t-41 11z" />
    <glyph glyph-name="onesuperior" unicode="&#xb9;" horiz-adv-x="284" 
d="M139 296l50 236l-71 -30l-22 51l135 58h57l-67 -315h-82z" />
    <glyph glyph-name="guillemotright" unicode="&#xbb;" horiz-adv-x="488" 
d="M148.021 393.002l115.993 -180.989l-193.988 -181.988l-65.9961 62.9961l129.992 122.992l-75.9961 114.993zM464.001 212.013l-186.988 -181.988l-66.9961 62.9961l124.992 122.992l-68.9961 114.993l88.9951 61.9961z" />
    <glyph glyph-name="onehalf" unicode="&#xbd;" horiz-adv-x="624" 
d="M-13 -30l572 668h105l-572 -668h-105zM138 296l50 236l-71 -30l-22 51l135 58h57l-67 -315h-82zM351 0l9 43l137 113q25 20 35 33t10 31q0 14 -9 23.5t-29 9.5q-23 0 -44.5 -5t-42.5 -16l-16 56q36 19 68.5 24.5t58.5 5.5q102 0 102 -82q0 -20 -6.5 -35.5t-17.5 -29
t-25.5 -25.5t-30.5 -25l-71 -56h127l-13 -65h-242z" />
    <glyph glyph-name="questiondown" unicode="&#xbf;" horiz-adv-x="413" 
d="M225.012 423h121.992l-23.998 -114.993h-122.993zM305.007 247.011l-11.999 -57.9961q-10 -49.9971 -39.498 -83.4951t-60.9961 -58.9961q-31.498 -25.499 -55.9971 -46.498q-24.498 -20.998 -24.498 -46.9971q0 -27.998 22.498 -38.9971q22.499 -11 51.4971 -11
q31.998 0 62.4961 7.5t54.4971 19.499l11.999 -87.9951q-36.998 -16.999 -79.9951 -26.998t-90.9941 -9.99902q-33.998 0 -64.9961 7.99902q-30.998 8 -54.4971 23.499q-23.498 15.499 -37.4971 38.4971q-13.999 22.999 -13.999 53.9971q0 32.998 13.999 58.4961
q13.999 25.499 35.9971 46.9971q21.999 21.499 47.9971 40.998q25.999 19.498 49.4971 39.9971q23.499 20.499 41.998 43.9971q18.498 23.499 24.498 53.4971l7 33.998h110.993z" />
    <glyph glyph-name="Agrave" unicode="&#xc0;" horiz-adv-x="587" 
d="M405 0l-18 157h-216l-80 -157h-133l330 608h164l87 -608h-134zM222 256h155l-23 256h-8zM371 820l72 -146h-107l-97 146h132z" />
    <glyph glyph-name="Aacute" unicode="&#xc1;" horiz-adv-x="587" 
d="M405 0l-18 157h-216l-80 -157h-133l330 608h164l87 -608h-134zM222 256h155l-23 256h-8zM591 820l-154 -146h-114l131 146h137z" />
    <glyph glyph-name="Acircumflex" unicode="&#xc2;" horiz-adv-x="587" 
d="M405 0l-18 157h-216l-80 -157h-133l330 608h164l87 -608h-134zM222 256h155l-23 256h-8zM489 819l56 -146h-101l-36 85h-10l-83 -85h-105l130 146h149z" />
    <glyph glyph-name="Atilde" unicode="&#xc3;" horiz-adv-x="587" 
d="M405 0l-18 157h-216l-80 -157h-133l330 608h164l87 -608h-134zM222 256h155l-23 256h-8zM568 732q-24 -20 -54 -33.5t-64 -13.5q-22 0 -39 5t-32.5 11.5t-30.5 11.5t-32 5q-23 0 -42 -8t-37 -20l-30 68q24 20 54 33t64 13q22 0 39 -5t32.5 -11t30.5 -11t32 -5
q23 0 42.5 8t36.5 20z" />
    <glyph glyph-name="Adieresis" unicode="&#xc4;" horiz-adv-x="587" 
d="M405 0l-18 157h-216l-80 -157h-133l330 608h164l87 -608h-134zM222 256h155l-23 256h-8zM351 696h-119l21 97h119zM535 696h-119l20 97h119z" />
    <glyph glyph-name="Aring" unicode="&#xc5;" horiz-adv-x="587" 
d="M405 0l-18 157h-216l-80 -157h-133l330 608h164l87 -608h-134zM222 256h155l-23 256h-8zM386 652q-49 0 -72.5 25.5t-23.5 58.5q0 56 34.5 88.5t100.5 32.5q48 0 72 -26t24 -59q0 -57 -34.5 -88.5t-100.5 -31.5zM398 716q22 0 34.5 11t12.5 33q0 14 -8.5 23t-23.5 9
q-48 0 -48 -44q0 -14 8.5 -23t24.5 -9z" />
    <glyph glyph-name="AE" unicode="&#xc6;" horiz-adv-x="831" 
d="M763 98l-21 -98h-370l25 157h-216l-121 -157h-127l480 608h448l-20 -98h-265l-23 -149h247l-20 -96h-243l-27 -167h253zM448 510l-190 -254h156l42 254h-8z" />
    <glyph glyph-name="Ccedilla" unicode="&#xc7;" horiz-adv-x="535" 
d="M307 -10q-60 0 -108.5 15.5t-83.5 46.5t-54 78t-19 109q0 74 21.5 142.5t64.5 121t107 84t150 31.5q57 0 107 -16.5t88 -55.5l-74 -72q-24 23 -55.5 35t-73.5 12q-55 0 -94.5 -23.5t-65 -62.5t-38 -89t-12.5 -102q0 -34 9 -62.5t28.5 -49.5t51.5 -32.5t78 -11.5
q37 0 65.5 7t60.5 19l9 -94q-28 -13 -71 -21.5t-91 -8.5zM122 -126q14 -5 26 -7.5t27 -2.5q25 0 40.5 8.5t15.5 32.5q0 18 -16 24t-52 12l35 58q72 -6 109 -25t37 -62q0 -57 -38.5 -89.5t-130.5 -32.5q-27 0 -53 5t-41 11z" />
    <glyph glyph-name="Egrave" unicode="&#xc8;" horiz-adv-x="492" 
d="M425 98l-21 -98h-395l129 608h385l-21 -98h-260l-32 -149h252l-20 -96h-252l-36 -167h271zM337 820l72 -146h-107l-97 146h132z" />
    <glyph glyph-name="Eacute" unicode="&#xc9;" horiz-adv-x="492" 
d="M425 98l-21 -98h-395l129 608h385l-21 -98h-260l-32 -149h252l-20 -96h-252l-36 -167h271zM579 820l-154 -146h-114l131 146h137z" />
    <glyph glyph-name="Ecircumflex" unicode="&#xca;" horiz-adv-x="492" 
d="M425 98l-21 -98h-395l129 608h385l-21 -98h-260l-32 -149h252l-20 -96h-252l-36 -167h271zM461 819l56 -146h-101l-36 85h-10l-83 -85h-105l130 146h149z" />
    <glyph glyph-name="Edieresis" unicode="&#xcb;" horiz-adv-x="492" 
d="M425 98l-21 -98h-395l129 608h385l-21 -98h-260l-32 -149h252l-20 -96h-252l-36 -167h271zM317 682h-119l21 97h119zM501 682h-119l20 97h119z" />
    <glyph glyph-name="Igrave" unicode="&#xcc;" horiz-adv-x="238" 
d="M138 608h125l-130 -608h-124zM210 820l72 -146h-107l-97 146h132z" />
    <glyph glyph-name="Iacute" unicode="&#xcd;" horiz-adv-x="238" 
d="M138 608h125l-130 -608h-124zM412 820l-154 -146h-114l131 146h137z" />
    <glyph glyph-name="Icircumflex" unicode="&#xce;" horiz-adv-x="238" 
d="M138 608h125l-130 -608h-124zM325 819l56 -146h-101l-36 85h-10l-83 -85h-105l130 146h149z" />
    <glyph glyph-name="Idieresis" unicode="&#xcf;" horiz-adv-x="238" 
d="M138 608h125l-130 -608h-124zM185 682h-119l21 97h119zM369 682h-119l20 97h119z" />
    <glyph glyph-name="Eth" unicode="&#xd0;" horiz-adv-x="616" 
d="M322 256h-302l21 97h302zM337 608q66 0 117 -17t85.5 -48t52 -74.5t17.5 -97.5q0 -95 -29 -165t-82 -116t-126.5 -68t-162.5 -22h-183l129 608h182zM225 95q58 0 105 17.5t80.5 51.5t51.5 82.5t18 110.5q0 73 -42 114t-118 41h-64l-88 -417h57z" />
    <glyph glyph-name="Ntilde" unicode="&#xd1;" horiz-adv-x="647" 
d="M674 608l-130 -608h-214l-80 512h-8l-109 -512h-124l129 608h215l80 -512h7l109 512h125zM607 735q-24 -20 -54 -33.5t-64 -13.5q-22 0 -39 5t-32.5 11.5t-30.5 11.5t-32 5q-23 0 -42 -8t-37 -20l-30 68q24 20 54 33t64 13q22 0 39 -5t32.5 -11t30.5 -11t32 -5
q23 0 42.5 8t36.5 20z" />
    <glyph glyph-name="Ograve" unicode="&#xd2;" horiz-adv-x="626" 
d="M272 -10q-113 0 -171.5 57.5t-58.5 171.5q0 91 24.5 165t69.5 126t109 80t144 28q113 0 171.5 -58t58.5 -171q0 -92 -24.5 -166t-70 -126t-109.5 -79.5t-143 -27.5zM373 525q-41 0 -77 -21t-64 -59.5t-44 -94t-16 -124.5t30 -105t84 -36q40 0 76.5 20.5t64.5 59.5
t44 94.5t16 124.5q0 70 -30 105.5t-84 35.5zM364 820l72 -146h-107l-97 146h132z" />
    <glyph glyph-name="Oacute" unicode="&#xd3;" horiz-adv-x="626" 
d="M272 -10q-113 0 -171.5 57.5t-58.5 171.5q0 91 24.5 165t69.5 126t109 80t144 28q113 0 171.5 -58t58.5 -171q0 -92 -24.5 -166t-70 -126t-109.5 -79.5t-143 -27.5zM373 525q-41 0 -77 -21t-64 -59.5t-44 -94t-16 -124.5t30 -105t84 -36q40 0 76.5 20.5t64.5 59.5
t44 94.5t16 124.5q0 70 -30 105.5t-84 35.5zM644 820l-154 -146h-114l131 146h137z" />
    <glyph glyph-name="Ocircumflex" unicode="&#xd4;" horiz-adv-x="626" 
d="M272 -10q-113 0 -171.5 57.5t-58.5 171.5q0 91 24.5 165t69.5 126t109 80t144 28q113 0 171.5 -58t58.5 -171q0 -92 -24.5 -166t-70 -126t-109.5 -79.5t-143 -27.5zM373 525q-41 0 -77 -21t-64 -59.5t-44 -94t-16 -124.5t30 -105t84 -36q40 0 76.5 20.5t64.5 59.5
t44 94.5t16 124.5q0 70 -30 105.5t-84 35.5zM520 819l56 -146h-101l-36 85h-10l-83 -85h-105l130 146h149z" />
    <glyph glyph-name="Otilde" unicode="&#xd5;" horiz-adv-x="626" 
d="M272 -10q-113 0 -171.5 57.5t-58.5 171.5q0 91 24.5 165t69.5 126t109 80t144 28q113 0 171.5 -58t58.5 -171q0 -92 -24.5 -166t-70 -126t-109.5 -79.5t-143 -27.5zM373 525q-41 0 -77 -21t-64 -59.5t-44 -94t-16 -124.5t30 -105t84 -36q40 0 76.5 20.5t64.5 59.5
t44 94.5t16 124.5q0 70 -30 105.5t-84 35.5zM589 732q-24 -20 -54 -33.5t-64 -13.5q-22 0 -39 5t-32.5 11.5t-30.5 11.5t-32 5q-23 0 -42 -8t-37 -20l-30 68q24 20 54 33t64 13q22 0 39 -5t32.5 -11t30.5 -11t32 -5q23 0 42.5 8t36.5 20z" />
    <glyph glyph-name="Odieresis" unicode="&#xd6;" horiz-adv-x="626" 
d="M272 -10q-113 0 -171.5 57.5t-58.5 171.5q0 91 24.5 165t69.5 126t109 80t144 28q113 0 171.5 -58t58.5 -171q0 -92 -24.5 -166t-70 -126t-109.5 -79.5t-143 -27.5zM373 525q-41 0 -77 -21t-64 -59.5t-44 -94t-16 -124.5t30 -105t84 -36q40 0 76.5 20.5t64.5 59.5
t44 94.5t16 124.5q0 70 -30 105.5t-84 35.5zM379 682h-119l21 97h119zM563 682h-119l20 97h119z" />
    <glyph glyph-name="multiply" unicode="&#xd7;" 
d="M357 39l-102 134l-165 -139l-60 76l166 140l-104 136l83 66l102 -134l165 139l60 -76l-166 -140l104 -136z" />
    <glyph glyph-name="Oslash" unicode="&#xd8;" horiz-adv-x="626" 
d="M-14 -4l85 91q-29 53 -29 132q0 91 24.5 165t69.5 126t109 80t144 28q87 0 143 -36l80 85l61 -51l-86 -92q32 -53 32 -135q0 -92 -24.5 -166t-70 -126t-109.5 -79.5t-143 -27.5q-94 0 -148 38l-77 -83zM286 81q40 0 77.5 21.5t65.5 61t45 95.5t17 125q0 9 -0.5 17.5
t-1.5 16.5l-284 -304q30 -33 81 -33zM168 226v-17t2 -16l283 304q-30 32 -80 32q-41 0 -78 -21.5t-65 -61t-45 -95.5t-17 -125z" />
    <glyph glyph-name="Ugrave" unicode="&#xd9;" horiz-adv-x="578" 
d="M608 608l-77 -365q-29 -134 -100.5 -193.5t-187.5 -59.5q-67 0 -108.5 20.5t-62 58t-21.5 88.5t12 113l71 338h124l-79 -373q-6 -26 -7 -52.5t6 -48t25.5 -35t51.5 -13.5t57.5 9t42.5 28.5t31 50.5t22 76l76 358h124zM370 820l72 -146h-107l-97 146h132z" />
    <glyph glyph-name="Uacute" unicode="&#xda;" horiz-adv-x="578" 
d="M608 608l-77 -365q-29 -134 -100.5 -193.5t-187.5 -59.5q-67 0 -108.5 20.5t-62 58t-21.5 88.5t12 113l71 338h124l-79 -373q-6 -26 -7 -52.5t6 -48t25.5 -35t51.5 -13.5t57.5 9t42.5 28.5t31 50.5t22 76l76 358h124zM581 820l-154 -146h-114l131 146h137z" />
    <glyph glyph-name="Ucircumflex" unicode="&#xdb;" horiz-adv-x="578" 
d="M608 608l-77 -365q-29 -134 -100.5 -193.5t-187.5 -59.5q-67 0 -108.5 20.5t-62 58t-21.5 88.5t12 113l71 338h124l-79 -373q-6 -26 -7 -52.5t6 -48t25.5 -35t51.5 -13.5t57.5 9t42.5 28.5t31 50.5t22 76l76 358h124zM495 819l56 -146h-101l-36 85h-10l-83 -85h-105
l130 146h149z" />
    <glyph glyph-name="Udieresis" unicode="&#xdc;" horiz-adv-x="578" 
d="M608 608l-77 -365q-29 -134 -100.5 -193.5t-187.5 -59.5q-67 0 -108.5 20.5t-62 58t-21.5 88.5t12 113l71 338h124l-79 -373q-6 -26 -7 -52.5t6 -48t25.5 -35t51.5 -13.5t57.5 9t42.5 28.5t31 50.5t22 76l76 358h124zM356 682h-119l21 97h119zM540 682h-119l20 97h119z
" />
    <glyph glyph-name="Yacute" unicode="&#xdd;" horiz-adv-x="535" 
d="M286 0h-124l61 239q-18 39 -37 87.5t-37.5 99t-36.5 98t-36 84.5h132l86 -259h8l184 259h131l-279 -369zM571 820l-154 -146h-114l131 146h137z" />
    <glyph glyph-name="Thorn" unicode="&#xde;" horiz-adv-x="514" 
d="M238 502h102q86 0 132 -37.5t46 -109.5q0 -55 -20 -100t-54 -76.5t-79.5 -48.5t-95.5 -17h-113l-24 -113h-123l129 608h123zM218 405l-42 -196h93q20 0 41 7t37.5 22t27 39t10.5 57q0 20 -6.5 33.5t-17 22t-24 12t-26.5 3.5h-93z" />
    <glyph glyph-name="germandbls" unicode="&#xdf;" horiz-adv-x="517" 
d="M208 101q22 -11 50 -18t62 -7q64 0 66 38q1 17 -8.5 27t-32.5 21q-13 7 -27 14.5t-25 12.5q-39 19 -55.5 42.5t-14.5 55.5q2 44 26.5 73t81.5 57q34 17 51.5 35t17.5 45q0 25 -19.5 36.5t-41.5 11.5q-32 0 -53.5 -9.5t-36 -27t-24 -42.5t-15.5 -55l-88 -411h-121l86 402
q25 123 90.5 177.5t178.5 54.5q31 0 61 -8t53.5 -24t38 -40t14.5 -56q0 -33 -13 -57t-33 -41.5t-44.5 -30.5t-47.5 -25q-20 -10 -36 -20t-17 -24t10 -22.5t29 -17.5q10 -4 26.5 -12.5t28.5 -15.5q33 -17 52.5 -43.5t17.5 -63.5q-4 -72 -51.5 -107.5t-135.5 -35.5
q-41 0 -74 8t-62 23z" />
    <glyph glyph-name="agrave" unicode="&#xe0;" horiz-adv-x="466" 
d="M282 37q-25 -24 -57 -35.5t-70 -11.5q-65 0 -99.5 39.5t-34.5 111.5q0 76 20.5 131t54 91t77.5 53t92 17q26 0 52.5 -5t50.5 -19l7 14h91l-59 -262l-22 -161h-97zM208 70q36 0 64 20l55 259q-23 9 -41 9q-34 0 -60 -14.5t-43.5 -41t-27 -63t-9.5 -80.5q0 -41 14 -65
t48 -24zM305 634l72 -146h-107l-97 146h132z" />
    <glyph glyph-name="aacute" unicode="&#xe1;" horiz-adv-x="466" 
d="M282 37q-25 -24 -57 -35.5t-70 -11.5q-65 0 -99.5 39.5t-34.5 111.5q0 76 20.5 131t54 91t77.5 53t92 17q26 0 52.5 -5t50.5 -19l7 14h91l-59 -262l-22 -161h-97zM208 70q36 0 64 20l55 259q-23 9 -41 9q-34 0 -60 -14.5t-43.5 -41t-27 -63t-9.5 -80.5q0 -41 14 -65
t48 -24zM496 634l-154 -146h-114l131 146h137z" />
    <glyph glyph-name="acircumflex" unicode="&#xe2;" horiz-adv-x="466" 
d="M282 37q-25 -24 -57 -35.5t-70 -11.5q-65 0 -99.5 39.5t-34.5 111.5q0 76 20.5 131t54 91t77.5 53t92 17q26 0 52.5 -5t50.5 -19l7 14h91l-59 -262l-22 -161h-97zM208 70q36 0 64 20l55 259q-23 9 -41 9q-34 0 -60 -14.5t-43.5 -41t-27 -63t-9.5 -80.5q0 -41 14 -65
t48 -24zM407 634l56 -146h-101l-36 85h-10l-83 -85h-105l130 146h149z" />
    <glyph glyph-name="atilde" unicode="&#xe3;" horiz-adv-x="466" 
d="M282 37q-25 -24 -57 -35.5t-70 -11.5q-65 0 -99.5 39.5t-34.5 111.5q0 76 20.5 131t54 91t77.5 53t92 17q26 0 52.5 -5t50.5 -19l7 14h91l-59 -262l-22 -161h-97zM208 70q36 0 64 20l55 259q-23 9 -41 9q-34 0 -60 -14.5t-43.5 -41t-27 -63t-9.5 -80.5q0 -41 14 -65
t48 -24zM475 547q-24 -20 -54 -33.5t-64 -13.5q-22 0 -39 5t-32.5 11.5t-30.5 11.5t-32 5q-23 0 -42 -8t-37 -20l-30 68q24 20 54 33t64 13q22 0 39 -5t32.5 -11t30.5 -11t32 -5q23 0 42.5 8t36.5 20z" />
    <glyph glyph-name="adieresis" unicode="&#xe4;" horiz-adv-x="466" 
d="M282 37q-25 -24 -57 -35.5t-70 -11.5q-65 0 -99.5 39.5t-34.5 111.5q0 76 20.5 131t54 91t77.5 53t92 17q26 0 52.5 -5t50.5 -19l7 14h91l-59 -262l-22 -161h-97zM208 70q36 0 64 20l55 259q-23 9 -41 9q-34 0 -60 -14.5t-43.5 -41t-27 -63t-9.5 -80.5q0 -41 14 -65
t48 -24zM274 511h-119l21 97h119zM458 511h-119l20 97h119z" />
    <glyph glyph-name="aring" unicode="&#xe5;" horiz-adv-x="466" 
d="M282 37q-25 -24 -57 -35.5t-70 -11.5q-65 0 -99.5 39.5t-34.5 111.5q0 76 20.5 131t54 91t77.5 53t92 17q26 0 52.5 -5t50.5 -19l7 14h91l-59 -262l-22 -161h-97zM208 70q36 0 64 20l55 259q-23 9 -41 9q-34 0 -60 -14.5t-43.5 -41t-27 -63t-9.5 -80.5q0 -41 14 -65
t48 -24zM293 457q-49 0 -72.5 25.5t-23.5 58.5q0 56 34.5 88.5t100.5 32.5q48 0 72 -26t24 -59q0 -57 -34.5 -88.5t-100.5 -31.5zM305 521q22 0 34.5 11t12.5 33q0 14 -8.5 23t-23.5 9q-48 0 -48 -44q0 -14 8.5 -23t24.5 -9z" />
    <glyph glyph-name="ae" unicode="&#xe6;" horiz-adv-x="686" 
d="M135 -10q-66 0 -99 31.5t-33 82.5q0 81 55 118t156 37q31 0 69 -3q5 22 5 40q0 52 -68 52q-36 0 -70 -7.5t-63 -21.5l-9 74q38 19 83 29.5t93 10.5q42 0 76 -11.5t52 -33.5q29 21 64.5 33t75.5 12q73 0 112 -28t39 -82q0 -45 -25.5 -74.5t-64.5 -47t-85 -24t-87 -6.5h-26
v-18q0 -78 88 -78q51 0 89.5 12t55.5 22v-75q-14 -8 -34.5 -15.5t-44.5 -14t-50 -10.5t-52 -4q-50 0 -83.5 11t-53.5 33q-27 -15 -67 -29.5t-98 -14.5zM266 138v20.5t2 21.5q-30 3 -61 3q-45 0 -61 -18.5t-16 -41.5q0 -24 16 -38t42 -14t46.5 8.5t34.5 19.5q-3 18 -3 39z
M503 354q-47 0 -73 -28.5t-37 -81.5h18q22 0 47 2.5t46 10t35 21t14 34.5q0 23 -13.5 32.5t-36.5 9.5z" />
    <glyph glyph-name="ccedilla" unicode="&#xe7;" horiz-adv-x="405" 
d="M345 27q-26 -16 -62 -26.5t-88 -10.5q-46 0 -78.5 12t-53.5 34.5t-31 54.5t-10 71q0 63 19 113.5t53.5 85.5t82 53.5t104.5 18.5q44 0 85 -12.5t61 -33.5l-73 -70q-27 34 -83 34q-28 0 -51.5 -12.5t-40 -35.5t-26 -55t-9.5 -71q0 -49 21.5 -76.5t66.5 -27.5q31 0 59 8.5
t54 20.5v-75zM72 -126q14 -5 26 -7.5t27 -2.5q25 0 40.5 8.5t15.5 32.5q0 18 -16 24t-52 12l35 58q72 -6 109 -25t37 -62q0 -57 -38.5 -89.5t-130.5 -32.5q-27 0 -53 5t-41 11z" />
    <glyph glyph-name="egrave" unicode="&#xe8;" horiz-adv-x="449" 
d="M383 35q-14 -8 -35 -15.5t-45.5 -14.5t-51 -11t-52.5 -4q-38 0 -70 8.5t-56 27.5t-37.5 49t-13.5 73q0 57 16 108.5t49 90.5t82 62.5t115 23.5q73 0 114 -28.5t41 -82.5q0 -49 -27 -79.5t-69.5 -48t-94.5 -25.5t-102 -11v-11q0 -36 21 -54t68 -18q45 0 82.5 10.5
t65.5 24.5v-75zM265 354q-27 0 -46 -10.5t-32.5 -28t-22 -40.5t-12.5 -47q33 2 63 6.5t52.5 13.5t36 23t13.5 37q0 22 -14.5 34t-37.5 12zM295 634l72 -146h-107l-97 146h132z" />
    <glyph glyph-name="eacute" unicode="&#xe9;" horiz-adv-x="449" 
d="M383 35q-14 -8 -35 -15.5t-45.5 -14.5t-51 -11t-52.5 -4q-38 0 -70 8.5t-56 27.5t-37.5 49t-13.5 73q0 57 16 108.5t49 90.5t82 62.5t115 23.5q73 0 114 -28.5t41 -82.5q0 -49 -27 -79.5t-69.5 -48t-94.5 -25.5t-102 -11v-11q0 -36 21 -54t68 -18q45 0 82.5 10.5
t65.5 24.5v-75zM265 354q-27 0 -46 -10.5t-32.5 -28t-22 -40.5t-12.5 -47q33 2 63 6.5t52.5 13.5t36 23t13.5 37q0 22 -14.5 34t-37.5 12zM491 634l-154 -146h-114l131 146h137z" />
    <glyph glyph-name="ecircumflex" unicode="&#xea;" horiz-adv-x="449" 
d="M383 35q-14 -8 -35 -15.5t-45.5 -14.5t-51 -11t-52.5 -4q-38 0 -70 8.5t-56 27.5t-37.5 49t-13.5 73q0 57 16 108.5t49 90.5t82 62.5t115 23.5q73 0 114 -28.5t41 -82.5q0 -49 -27 -79.5t-69.5 -48t-94.5 -25.5t-102 -11v-11q0 -36 21 -54t68 -18q45 0 82.5 10.5
t65.5 24.5v-75zM265 354q-27 0 -46 -10.5t-32.5 -28t-22 -40.5t-12.5 -47q33 2 63 6.5t52.5 13.5t36 23t13.5 37q0 22 -14.5 34t-37.5 12zM407 634l56 -146h-101l-36 85h-10l-83 -85h-105l130 146h149z" />
    <glyph glyph-name="edieresis" unicode="&#xeb;" horiz-adv-x="449" 
d="M383 35q-14 -8 -35 -15.5t-45.5 -14.5t-51 -11t-52.5 -4q-38 0 -70 8.5t-56 27.5t-37.5 49t-13.5 73q0 57 16 108.5t49 90.5t82 62.5t115 23.5q73 0 114 -28.5t41 -82.5q0 -49 -27 -79.5t-69.5 -48t-94.5 -25.5t-102 -11v-11q0 -36 21 -54t68 -18q45 0 82.5 10.5
t65.5 24.5v-75zM265 354q-27 0 -46 -10.5t-32.5 -28t-22 -40.5t-12.5 -47q33 2 63 6.5t52.5 13.5t36 23t13.5 37q0 22 -14.5 34t-37.5 12zM272 511h-119l21 97h119zM456 511h-119l20 97h119z" />
    <glyph glyph-name="igrave" unicode="&#xec;" horiz-adv-x="215" 
d="M172 634l64 -146h-102l-79 146h117zM3 0l90 423h122l-90 -423h-122z" />
    <glyph glyph-name="iacute" unicode="&#xed;" horiz-adv-x="215" 
d="M340 634l-135 -146h-110l117 146h128zM3 0l90 423h122l-90 -423h-122z" />
    <glyph glyph-name="icircumflex" unicode="&#xee;" horiz-adv-x="215" 
d="M268 639l52 -146h-93l-36 86h-10l-78 -86h-96l117 146h144zM3 0l90 423h122l-90 -423h-122z" />
    <glyph glyph-name="idieresis" unicode="&#xef;" horiz-adv-x="215" 
d="M143 512h-105l20 96h105zM301 512h-104l20 96h104zM3 0l90 423h122l-90 -423h-122z" />
    <glyph glyph-name="eth" unicode="&#xf0;" horiz-adv-x="477" 
d="M104 491l122 52q-26 8 -54.5 13.5t-59.5 10.5l32 80q63 -7 110 -21.5t82 -36.5l133 57l19 -58l-98 -42q22 -23 36 -48t22 -51t11.5 -52t3.5 -51q0 -101 -18.5 -169t-53.5 -109.5t-85 -59.5t-112 -18q-92 0 -132 43.5t-40 117.5q0 54 13.5 105t42.5 90t76 62.5t113 23.5
q25 0 43.5 -5t32.5 -12q-6 31 -19 53.5t-31 38.5l-172 -72zM212 71q61 0 96 63.5t39 189.5q-14 11 -32 18t-43 7q-24 0 -46.5 -11t-40 -33.5t-27.5 -58.5t-10 -85q0 -38 14.5 -64t49.5 -26z" />
    <glyph glyph-name="ntilde" unicode="&#xf1;" horiz-adv-x="458" 
d="M3 0l55 257l25 166h98v-48q31 27 69 42.5t74 15.5q61 0 88 -26t27 -76q0 -13 -2 -27t-5 -30l-58 -274h-123l56 259l4 22t2 22q0 17 -7.5 28.5t-30.5 11.5q-45 0 -87 -47l-63 -296h-122zM472 547q-24 -20 -54 -33.5t-64 -13.5q-22 0 -39 5t-32.5 11.5t-30.5 11.5t-32 5
q-23 0 -42 -8t-37 -20l-30 68q24 20 54 33t64 13q22 0 39 -5t32.5 -11t30.5 -11t32 -5q23 0 42.5 8t36.5 20z" />
    <glyph glyph-name="ograve" unicode="&#xf2;" horiz-adv-x="476" 
d="M188 -10q-89 0 -128 41t-39 111q0 66 18.5 119.5t53 92t84.5 59t113 20.5q89 0 128.5 -42t39.5 -112q0 -66 -18.5 -119.5t-53.5 -91t-85 -58t-113 -20.5zM206 72q27 0 50.5 14t41 40t27 63t9.5 84q0 32 -15 55.5t-47 23.5q-27 0 -50 -14t-40 -40.5t-26.5 -64t-9.5 -83.5
q0 -33 14.5 -55.5t45.5 -22.5zM290 634l72 -146h-107l-97 146h132z" />
    <glyph glyph-name="oacute" unicode="&#xf3;" horiz-adv-x="476" 
d="M188 -10q-89 0 -128 41t-39 111q0 66 18.5 119.5t53 92t84.5 59t113 20.5q89 0 128.5 -42t39.5 -112q0 -66 -18.5 -119.5t-53.5 -91t-85 -58t-113 -20.5zM206 72q27 0 50.5 14t41 40t27 63t9.5 84q0 32 -15 55.5t-47 23.5q-27 0 -50 -14t-40 -40.5t-26.5 -64t-9.5 -83.5
q0 -33 14.5 -55.5t45.5 -22.5zM506 634l-154 -146h-114l131 146h137z" />
    <glyph glyph-name="ocircumflex" unicode="&#xf4;" horiz-adv-x="476" 
d="M188 -10q-89 0 -128 41t-39 111q0 66 18.5 119.5t53 92t84.5 59t113 20.5q89 0 128.5 -42t39.5 -112q0 -66 -18.5 -119.5t-53.5 -91t-85 -58t-113 -20.5zM206 72q27 0 50.5 14t41 40t27 63t9.5 84q0 32 -15 55.5t-47 23.5q-27 0 -50 -14t-40 -40.5t-26.5 -64t-9.5 -83.5
q0 -33 14.5 -55.5t45.5 -22.5zM414 634l56 -146h-101l-36 85h-10l-83 -85h-105l130 146h149z" />
    <glyph glyph-name="otilde" unicode="&#xf5;" horiz-adv-x="476" 
d="M188 -10q-89 0 -128 41t-39 111q0 66 18.5 119.5t53 92t84.5 59t113 20.5q89 0 128.5 -42t39.5 -112q0 -66 -18.5 -119.5t-53.5 -91t-85 -58t-113 -20.5zM206 72q27 0 50.5 14t41 40t27 63t9.5 84q0 32 -15 55.5t-47 23.5q-27 0 -50 -14t-40 -40.5t-26.5 -64t-9.5 -83.5
q0 -33 14.5 -55.5t45.5 -22.5zM484 547q-24 -20 -54 -33.5t-64 -13.5q-22 0 -39 5t-32.5 11.5t-30.5 11.5t-32 5q-23 0 -42 -8t-37 -20l-30 68q24 20 54 33t64 13q22 0 39 -5t32.5 -11t30.5 -11t32 -5q23 0 42.5 8t36.5 20z" />
    <glyph glyph-name="odieresis" unicode="&#xf6;" horiz-adv-x="476" 
d="M188 -10q-89 0 -128 41t-39 111q0 66 18.5 119.5t53 92t84.5 59t113 20.5q89 0 128.5 -42t39.5 -112q0 -66 -18.5 -119.5t-53.5 -91t-85 -58t-113 -20.5zM206 72q27 0 50.5 14t41 40t27 63t9.5 84q0 32 -15 55.5t-47 23.5q-27 0 -50 -14t-40 -40.5t-26.5 -64t-9.5 -83.5
q0 -33 14.5 -55.5t45.5 -22.5zM273 511h-119l21 97h119zM457 511h-119l20 97h119z" />
    <glyph glyph-name="divide" unicode="&#xf7;" 
d="M184 143h121l-24 -113h-121zM349 347h-122l25 114h121zM82 293h388l-20 -96h-388z" />
    <glyph glyph-name="oslash" unicode="&#xf8;" horiz-adv-x="480" 
d="M-30 11l63 60q-11 29 -11 71q0 66 15.5 120t48.5 92.5t85.5 59t126.5 20.5q53 0 89 -17l62 60l65 -66l-64 -62q6 -15 8.5 -32.5t2.5 -37.5q0 -66 -15.5 -120t-49 -92t-86 -58.5t-125.5 -20.5q-28 0 -50 4t-39 12l-61 -59zM207 66q25 0 49.5 10.5t43.5 32t30.5 55
t11.5 78.5v9l-175 -172q5 -6 16.5 -9.5t23.5 -3.5zM276 356q-25 0 -49.5 -10.5t-43.5 -32t-30.5 -54.5t-11.5 -78v-9l175 171q-5 6 -16.5 9.5t-23.5 3.5z" />
    <glyph glyph-name="ugrave" unicode="&#xf9;" horiz-adv-x="459" 
d="M211 423l-56 -259q-2 -11 -4 -23t-2 -22q0 -17 7.5 -28t30.5 -11q45 0 86 47l64 296h122l-55 -257l-25 -166h-98v48q-32 -28 -70 -43t-73 -15q-61 0 -88 26t-27 76q0 13 2.5 29t4.5 28l58 274h123zM270 634l72 -146h-107l-97 146h132z" />
    <glyph glyph-name="uacute" unicode="&#xfa;" horiz-adv-x="459" 
d="M211 423l-56 -259q-2 -11 -4 -23t-2 -22q0 -17 7.5 -28t30.5 -11q45 0 86 47l64 296h122l-55 -257l-25 -166h-98v48q-32 -28 -70 -43t-73 -15q-61 0 -88 26t-27 76q0 13 2.5 29t4.5 28l58 274h123zM498 634l-154 -146h-114l131 146h137z" />
    <glyph glyph-name="ucircumflex" unicode="&#xfb;" horiz-adv-x="459" 
d="M211 423l-56 -259q-2 -11 -4 -23t-2 -22q0 -17 7.5 -28t30.5 -11q45 0 86 47l64 296h122l-55 -257l-25 -166h-98v48q-32 -28 -70 -43t-73 -15q-61 0 -88 26t-27 76q0 13 2.5 29t4.5 28l58 274h123zM401 634l56 -146h-101l-36 85h-10l-83 -85h-105l130 146h149z" />
    <glyph glyph-name="udieresis" unicode="&#xfc;" horiz-adv-x="459" 
d="M211 423l-56 -259q-2 -11 -4 -23t-2 -22q0 -17 7.5 -28t30.5 -11q45 0 86 47l64 296h122l-55 -257l-25 -166h-98v48q-32 -28 -70 -43t-73 -15q-61 0 -88 26t-27 76q0 13 2.5 29t4.5 28l58 274h123zM262 511h-119l21 97h119zM446 511h-119l20 97h119z" />
    <glyph glyph-name="yacute" unicode="&#xfd;" horiz-adv-x="426" 
d="M-37 -126q9 -2 18 -2h16q30 0 47.5 9.5t28.5 21.5q13 14 29 42t31 55l-89 423h121l44 -290h9l134 290h120l-245 -459q-21 -40 -43 -72.5t-49 -56t-61 -36t-79 -12.5q-15 0 -31 1t-30 6zM494 634l-154 -146h-114l131 146h137z" />
    <glyph glyph-name="thorn" unicode="&#xfe;" horiz-adv-x="465" 
d="M170 213l-85 -403l-128 -15l89 413zM210 406q43 27 102 27q61 0 97 -41t36 -110q0 -55 -15.5 -107.5t-47 -93t-79 -65t-111.5 -24.5q-24 0 -48 4t-46 15l-6 -11h-91l135 626l125 16zM258 353q-36 0 -64 -20l-56 -258q11 -5 20.5 -6t18.5 -1q39 0 67 18t45 46.5t25 64.5
t8 73q0 36 -16.5 59.5t-47.5 23.5z" />
    <glyph glyph-name="ydieresis" unicode="&#xff;" horiz-adv-x="426" 
d="M-37 -126q9 -2 18 -2h16q30 0 47.5 9.5t28.5 21.5q13 14 29 42t31 55l-89 423h121l44 -290h9l134 290h120l-245 -459q-21 -40 -43 -72.5t-49 -56t-61 -36t-79 -12.5q-15 0 -31 1t-30 6zM246 511h-119l21 97h119zM430 511h-119l20 97h119z" />
    <glyph glyph-name="Amacron" unicode="&#x100;" horiz-adv-x="587" 
d="M405 0l-18 157h-216l-80 -157h-133l330 608h164l87 -608h-134zM222 256h155l-23 256h-8zM535 699h-293l19 91h293z" />
    <glyph glyph-name="amacron" unicode="&#x101;" horiz-adv-x="466" 
d="M282 37q-25 -24 -57 -35.5t-70 -11.5q-65 0 -99.5 39.5t-34.5 111.5q0 76 20.5 131t54 91t77.5 53t92 17q26 0 52.5 -5t50.5 -19l7 14h91l-59 -262l-22 -161h-97zM208 70q36 0 64 20l55 259q-23 9 -41 9q-34 0 -60 -14.5t-43.5 -41t-27 -63t-9.5 -80.5q0 -41 14 -65
t48 -24zM463 514h-293l19 91h293z" />
    <glyph glyph-name="Abreve" unicode="&#x102;" horiz-adv-x="587" 
d="M405 0l-18 157h-216l-80 -157h-133l330 608h164l87 -608h-134zM222 256h155l-23 256h-8zM558 818q-7 -75 -48.5 -114.5t-126.5 -39.5q-37 0 -62.5 9.5t-41 26t-22.5 39t-7 48.5q0 16 3 31h88q-2 -8 -2 -13.5v-8.5q0 -24 12 -38.5t41 -14.5q70 0 76 75h90z" />
    <glyph glyph-name="abreve" unicode="&#x103;" horiz-adv-x="466" 
d="M282 37q-25 -24 -57 -35.5t-70 -11.5q-65 0 -99.5 39.5t-34.5 111.5q0 76 20.5 131t54 91t77.5 53t92 17q26 0 52.5 -5t50.5 -19l7 14h91l-59 -262l-22 -161h-97zM208 70q36 0 64 20l55 259q-23 9 -41 9q-34 0 -60 -14.5t-43.5 -41t-27 -63t-9.5 -80.5q0 -41 14 -65
t48 -24zM472 634q-7 -75 -48.5 -114.5t-126.5 -39.5q-37 0 -62.5 9.5t-41 26t-22.5 39t-7 48.5q0 16 3 31h88q-2 -8 -2 -13.5v-8.5q0 -24 12 -38.5t41 -14.5q70 0 76 75h90z" />
    <glyph glyph-name="Aogonek" unicode="&#x104;" horiz-adv-x="587" 
d="M508 -189q-20 -9 -50 -14.5t-58 -5.5q-99 0 -99 73q0 27 6 47t18.5 36t32.5 28.5t47 24.5q10 4 26.5 9.5t34 10.5t34 9t27.5 6l12 -35q-13 -4 -32 -11t-38 -18q-22 -12 -35 -28t-13 -44q0 -32 36 -32q11 0 22 1.5t21 5.5zM405 0l-18 157h-216l-80 -157h-133l330 608h164
l87 -608h-134zM222 256h155l-23 256h-8z" />
    <glyph glyph-name="aogonek" unicode="&#x105;" horiz-adv-x="466" 
d="M282 37q-25 -24 -57 -35.5t-70 -11.5q-65 0 -99.5 39.5t-34.5 111.5q0 76 20.5 131t54 91t77.5 53t92 17q26 0 52.5 -5t50.5 -19l7 14h91l-59 -262l-22 -161h-97zM208 70q36 0 64 20l55 259q-23 9 -41 9q-34 0 -60 -14.5t-43.5 -41t-27 -63t-9.5 -80.5q0 -41 14 -65
t48 -24zM366 -189q-20 -9 -50 -14.5t-58 -5.5q-99 0 -99 73q0 20 4 38t17 35t37 33t63 33q26 11 52 18.5t49 11.5l4 -33q-17 -8 -33 -16t-30 -18q-26 -18 -34.5 -33.5t-8.5 -35.5q0 -30 35 -30q11 0 22.5 1.5t21.5 5.5z" />
    <glyph glyph-name="Cacute" unicode="&#x106;" horiz-adv-x="535" 
d="M307 -10q-60 0 -108.5 15.5t-83.5 46.5t-54 78t-19 109q0 74 21.5 142.5t64.5 121t107 84t150 31.5q57 0 107 -16.5t88 -55.5l-74 -72q-24 23 -55.5 35t-73.5 12q-55 0 -94.5 -23.5t-65 -62.5t-38 -89t-12.5 -102q0 -34 9 -62.5t28.5 -49.5t51.5 -32.5t78 -11.5
q37 0 65.5 7t60.5 19l9 -94q-28 -13 -71 -21.5t-91 -8.5zM632 820l-154 -146h-114l131 146h137z" />
    <glyph glyph-name="cacute" unicode="&#x107;" horiz-adv-x="405" 
d="M345 27q-26 -16 -62 -26.5t-88 -10.5q-46 0 -78.5 12t-53.5 34.5t-31 54.5t-10 71q0 63 19 113.5t53.5 85.5t82 53.5t104.5 18.5q44 0 85 -12.5t61 -33.5l-73 -70q-27 34 -83 34q-28 0 -51.5 -12.5t-40 -35.5t-26 -55t-9.5 -71q0 -49 21.5 -76.5t66.5 -27.5q31 0 59 8.5
t54 20.5v-75zM481 634l-154 -146h-114l131 146h137z" />
    <glyph glyph-name="Ccircumflex" unicode="&#x108;" horiz-adv-x="535" 
d="M307 -10q-60 0 -108.5 15.5t-83.5 46.5t-54 78t-19 109q0 74 21.5 142.5t64.5 121t107 84t150 31.5q57 0 107 -16.5t88 -55.5l-74 -72q-24 23 -55.5 35t-73.5 12q-55 0 -94.5 -23.5t-65 -62.5t-38 -89t-12.5 -102q0 -34 9 -62.5t28.5 -49.5t51.5 -32.5t78 -11.5
q37 0 65.5 7t60.5 19l9 -94q-28 -13 -71 -21.5t-91 -8.5zM494 819l56 -146h-101l-36 85h-10l-83 -85h-105l130 146h149z" />
    <glyph glyph-name="ccircumflex" unicode="&#x109;" horiz-adv-x="405" 
d="M345 27q-26 -16 -62 -26.5t-88 -10.5q-46 0 -78.5 12t-53.5 34.5t-31 54.5t-10 71q0 63 19 113.5t53.5 85.5t82 53.5t104.5 18.5q44 0 85 -12.5t61 -33.5l-73 -70q-27 34 -83 34q-28 0 -51.5 -12.5t-40 -35.5t-26 -55t-9.5 -71q0 -49 21.5 -76.5t66.5 -27.5q31 0 59 8.5
t54 20.5v-75zM394 634l56 -146h-101l-36 85h-10l-83 -85h-105l130 146h149z" />
    <glyph glyph-name="Cdotaccent" unicode="&#x10a;" horiz-adv-x="535" 
d="M307 -10q-60 0 -108.5 15.5t-83.5 46.5t-54 78t-19 109q0 74 21.5 142.5t64.5 121t107 84t150 31.5q57 0 107 -16.5t88 -55.5l-74 -72q-24 23 -55.5 35t-73.5 12q-55 0 -94.5 -23.5t-65 -62.5t-38 -89t-12.5 -102q0 -34 9 -62.5t28.5 -49.5t51.5 -32.5t78 -11.5
q37 0 65.5 7t60.5 19l9 -94q-28 -13 -71 -21.5t-91 -8.5zM462 696h-124l21 97h124z" />
    <glyph glyph-name="cdotaccent" unicode="&#x10b;" horiz-adv-x="405" 
d="M345 27q-26 -16 -62 -26.5t-88 -10.5q-46 0 -78.5 12t-53.5 34.5t-31 54.5t-10 71q0 63 19 113.5t53.5 85.5t82 53.5t104.5 18.5q44 0 85 -12.5t61 -33.5l-73 -70q-27 34 -83 34q-28 0 -51.5 -12.5t-40 -35.5t-26 -55t-9.5 -71q0 -49 21.5 -76.5t66.5 -27.5q31 0 59 8.5
t54 20.5v-75zM355 511h-124l21 97h124z" />
    <glyph glyph-name="Ccaron" unicode="&#x10c;" horiz-adv-x="535" 
d="M307 -10q-60 0 -108.5 15.5t-83.5 46.5t-54 78t-19 109q0 74 21.5 142.5t64.5 121t107 84t150 31.5q57 0 107 -16.5t88 -55.5l-74 -72q-24 23 -55.5 35t-73.5 12q-55 0 -94.5 -23.5t-65 -62.5t-38 -89t-12.5 -102q0 -34 9 -62.5t28.5 -49.5t51.5 -32.5t78 -11.5
q37 0 65.5 7t60.5 19l9 -94q-28 -13 -71 -21.5t-91 -8.5zM317 673l-59 146h103l39 -85h10l79 85h104l-125 -146h-151z" />
    <glyph glyph-name="ccaron" unicode="&#x10d;" horiz-adv-x="405" 
d="M345 27q-26 -16 -62 -26.5t-88 -10.5q-46 0 -78.5 12t-53.5 34.5t-31 54.5t-10 71q0 63 19 113.5t53.5 85.5t82 53.5t104.5 18.5q44 0 85 -12.5t61 -33.5l-73 -70q-27 34 -83 34q-28 0 -51.5 -12.5t-40 -35.5t-26 -55t-9.5 -71q0 -49 21.5 -76.5t66.5 -27.5q31 0 59 8.5
t54 20.5v-75zM220 488l-59 146h103l39 -85h10l79 85h104l-125 -146h-151z" />
    <glyph glyph-name="Dcaron" unicode="&#x10e;" horiz-adv-x="599" 
d="M320 608q66 0 117 -17t85.5 -48t52 -74.5t17.5 -97.5q0 -95 -29 -165t-82 -116t-126.5 -68t-162.5 -22h-183l129 608h182zM208 95q58 0 105 17.5t80.5 51.5t51.5 82.5t18 110.5q0 73 -42 114t-118 41h-64l-88 -417h57zM293 673l-59 146h103l39 -85h10l79 85h104
l-125 -146h-151z" />
    <glyph glyph-name="dcaron" unicode="&#x10f;" horiz-adv-x="583" 
d="M601 479h-80l52 155h118zM281 0l-4 30q-47 -40 -121 -40q-65 0 -99.5 39.5t-34.5 111.5q0 78 21.5 133.5t57.5 91t84 51.5t101 16q34 0 58 -7l43 200l126 16l-112 -528l-16 -114h-104zM209 70q37 0 65 20l54 257q-20 7 -38 7q-69 0 -106 -53.5t-37 -141.5q0 -41 14 -65
t48 -24z" />
    <glyph glyph-name="Dcroat" unicode="&#x110;" horiz-adv-x="616" 
d="M322 256h-302l21 97h302zM337 608q66 0 117 -17t85.5 -48t52 -74.5t17.5 -97.5q0 -95 -29 -165t-82 -116t-126.5 -68t-162.5 -22h-183l129 608h182zM225 95q58 0 105 17.5t80.5 51.5t51.5 82.5t18 110.5q0 73 -42 114t-118 41h-64l-88 -417h57z" />
    <glyph glyph-name="dcroat" unicode="&#x111;" horiz-adv-x="472" 
d="M549 477h-280l18 82h279zM281 0l-4 30q-47 -40 -121 -40q-65 0 -99.5 39.5t-34.5 111.5q0 78 21.5 133.5t57.5 91t84 51.5t101 16q34 0 58 -7l43 200l126 16l-112 -528l-16 -114h-104zM209 70q37 0 65 20l54 257q-20 7 -38 7q-69 0 -106 -53.5t-37 -141.5q0 -41 14 -65
t48 -24z" />
    <glyph glyph-name="Emacron" unicode="&#x112;" horiz-adv-x="492" 
d="M425 98l-21 -98h-395l129 608h385l-21 -98h-260l-32 -149h252l-20 -96h-252l-36 -167h271zM498 699h-293l19 91h293z" />
    <glyph glyph-name="emacron" unicode="&#x113;" horiz-adv-x="449" 
d="M383 35q-14 -8 -35 -15.5t-45.5 -14.5t-51 -11t-52.5 -4q-38 0 -70 8.5t-56 27.5t-37.5 49t-13.5 73q0 57 16 108.5t49 90.5t82 62.5t115 23.5q73 0 114 -28.5t41 -82.5q0 -49 -27 -79.5t-69.5 -48t-94.5 -25.5t-102 -11v-11q0 -36 21 -54t68 -18q45 0 82.5 10.5
t65.5 24.5v-75zM265 354q-27 0 -46 -10.5t-32.5 -28t-22 -40.5t-12.5 -47q33 2 63 6.5t52.5 13.5t36 23t13.5 37q0 22 -14.5 34t-37.5 12zM450 514h-293l19 91h293z" />
    <glyph glyph-name="Edotaccent" unicode="&#x116;" horiz-adv-x="492" 
d="M425 98l-21 -98h-395l129 608h385l-21 -98h-260l-32 -149h252l-20 -96h-252l-36 -167h271zM402 696h-124l21 97h124z" />
    <glyph glyph-name="edotaccent" unicode="&#x117;" horiz-adv-x="449" 
d="M383 35q-14 -8 -35 -15.5t-45.5 -14.5t-51 -11t-52.5 -4q-38 0 -70 8.5t-56 27.5t-37.5 49t-13.5 73q0 57 16 108.5t49 90.5t82 62.5t115 23.5q73 0 114 -28.5t41 -82.5q0 -49 -27 -79.5t-69.5 -48t-94.5 -25.5t-102 -11v-11q0 -36 21 -54t68 -18q45 0 82.5 10.5
t65.5 24.5v-75zM265 354q-27 0 -46 -10.5t-32.5 -28t-22 -40.5t-12.5 -47q33 2 63 6.5t52.5 13.5t36 23t13.5 37q0 22 -14.5 34t-37.5 12zM373 511h-124l21 97h124z" />
    <glyph glyph-name="Eogonek" unicode="&#x118;" horiz-adv-x="492" 
d="M425 98l-21 -98h-395l129 608h385l-21 -98h-260l-32 -149h252l-20 -96h-252l-36 -167h271zM386 -189q-20 -9 -50 -14.5t-58 -5.5q-99 0 -99 73q0 20 4 38t17 35t37 33t63 33q26 11 52 18.5t49 11.5l4 -33q-17 -8 -33 -16t-30 -18q-26 -18 -34.5 -33.5t-8.5 -35.5
q0 -30 35 -30q11 0 22.5 1.5t21.5 5.5z" />
    <glyph glyph-name="eogonek" unicode="&#x119;" horiz-adv-x="449" 
d="M361 -189q-21 -9 -51.5 -14.5t-59.5 -5.5q-17 0 -34.5 3.5t-31 12t-22 22.5t-8.5 36q0 65 63 114q57 45 161 72l5 -15q-15 -8 -39 -23.5t-42 -38.5q-11 -14 -18 -30t-7 -35q0 -17 7.5 -29.5t24.5 -12.5q11 0 22 1.5t22 5.5zM383 35q-14 -8 -35 -15.5t-45.5 -14.5t-51 -11
t-52.5 -4q-38 0 -70 8.5t-56 27.5t-37.5 49t-13.5 73q0 57 16 108.5t49 90.5t82 62.5t115 23.5q73 0 114 -28.5t41 -82.5q0 -49 -27 -79.5t-69.5 -48t-94.5 -25.5t-102 -11v-11q0 -36 21 -54t68 -18q45 0 82.5 10.5t65.5 24.5v-75zM265 354q-27 0 -46 -10.5t-32.5 -28
t-22 -40.5t-12.5 -47q33 2 63 6.5t52.5 13.5t36 23t13.5 37q0 22 -14.5 34t-37.5 12z" />
    <glyph glyph-name="Ecaron" unicode="&#x11a;" horiz-adv-x="492" 
d="M425 98l-21 -98h-395l129 608h385l-21 -98h-260l-32 -149h252l-20 -96h-252l-36 -167h271zM272 673l-59 146h103l39 -85h10l79 85h104l-125 -146h-151z" />
    <glyph glyph-name="ecaron" unicode="&#x11b;" horiz-adv-x="449" 
d="M383 35q-14 -8 -35 -15.5t-45.5 -14.5t-51 -11t-52.5 -4q-38 0 -70 8.5t-56 27.5t-37.5 49t-13.5 73q0 57 16 108.5t49 90.5t82 62.5t115 23.5q73 0 114 -28.5t41 -82.5q0 -49 -27 -79.5t-69.5 -48t-94.5 -25.5t-102 -11v-11q0 -36 21 -54t68 -18q45 0 82.5 10.5
t65.5 24.5v-75zM265 354q-27 0 -46 -10.5t-32.5 -28t-22 -40.5t-12.5 -47q33 2 63 6.5t52.5 13.5t36 23t13.5 37q0 22 -14.5 34t-37.5 12zM220 488l-59 146h103l39 -85h10l79 85h104l-125 -146h-151z" />
    <glyph glyph-name="Gcircumflex" unicode="&#x11c;" horiz-adv-x="595" 
d="M392 618q64 0 123 -16.5t98 -52.5l-69 -76q-23 20 -62 34t-90 14q-56 0 -98 -19.5t-70.5 -55t-43 -85.5t-14.5 -110q0 -77 44 -122t136 -45q13 0 26 1t27 4l31 147h-120l20 95h242l-68 -315q-45 -14 -88 -20t-93 -6q-62 0 -113.5 15.5t-88.5 46.5t-58 77.5t-21 109.5
q0 88 26.5 158.5t73 119.5t111 75t139.5 26zM524 819l56 -146h-101l-36 85h-10l-83 -85h-105l130 146h149z" />
    <glyph glyph-name="gcircumflex" unicode="&#x11d;" horiz-adv-x="466" 
d="M267 433q26 0 52 -5t49 -19l8 14h91l-93 -434q-12 -55 -34.5 -93.5t-54.5 -62.5t-72.5 -35t-87.5 -11q-37 0 -75 5.5t-61 13.5l34 88q15 -6 42.5 -12t62.5 -6q45 0 78 20t44 71l11 52q-44 -29 -103 -29q-65 0 -100 39.5t-35 111.5q0 76 20 131t54 91t78 53t92 17zM211 69
q35 0 63 20l54 257q-11 5 -21 7t-19 2q-69 0 -104.5 -53.5t-35.5 -142.5q0 -40 14 -65t49 -25zM411 634l56 -146h-101l-36 85h-10l-83 -85h-105l130 146h149z" />
    <glyph glyph-name="Gbreve" unicode="&#x11e;" horiz-adv-x="595" 
d="M392 618q64 0 123 -16.5t98 -52.5l-69 -76q-23 20 -62 34t-90 14q-56 0 -98 -19.5t-70.5 -55t-43 -85.5t-14.5 -110q0 -77 44 -122t136 -45q13 0 26 1t27 4l31 147h-120l20 95h242l-68 -315q-45 -14 -88 -20t-93 -6q-62 0 -113.5 15.5t-88.5 46.5t-58 77.5t-21 109.5
q0 88 26.5 158.5t73 119.5t111 75t139.5 26zM596 818q-7 -75 -48.5 -114.5t-126.5 -39.5q-37 0 -62.5 9.5t-41 26t-22.5 39t-7 48.5q0 16 3 31h88q-2 -8 -2 -13.5v-8.5q0 -24 12 -38.5t41 -14.5q70 0 76 75h90z" />
    <glyph glyph-name="gbreve" unicode="&#x11f;" horiz-adv-x="466" 
d="M267 433q26 0 52 -5t49 -19l8 14h91l-93 -434q-12 -55 -34.5 -93.5t-54.5 -62.5t-72.5 -35t-87.5 -11q-37 0 -75 5.5t-61 13.5l34 88q15 -6 42.5 -12t62.5 -6q45 0 78 20t44 71l11 52q-44 -29 -103 -29q-65 0 -100 39.5t-35 111.5q0 76 20 131t54 91t78 53t92 17zM211 69
q35 0 63 20l54 257q-11 5 -21 7t-19 2q-69 0 -104.5 -53.5t-35.5 -142.5q0 -40 14 -65t49 -25zM477 634q-7 -75 -48.5 -114.5t-126.5 -39.5q-37 0 -62.5 9.5t-41 26t-22.5 39t-7 48.5q0 16 3 31h88q-2 -8 -2 -13.5v-8.5q0 -24 12 -38.5t41 -14.5q70 0 76 75h90z" />
    <glyph glyph-name="Gdotaccent" unicode="&#x120;" horiz-adv-x="595" 
d="M392 618q64 0 123 -16.5t98 -52.5l-69 -76q-23 20 -62 34t-90 14q-56 0 -98 -19.5t-70.5 -55t-43 -85.5t-14.5 -110q0 -77 44 -122t136 -45q13 0 26 1t27 4l31 147h-120l20 95h242l-68 -315q-45 -14 -88 -20t-93 -6q-62 0 -113.5 15.5t-88.5 46.5t-58 77.5t-21 109.5
q0 88 26.5 158.5t73 119.5t111 75t139.5 26zM489 696h-124l21 97h124z" />
    <glyph glyph-name="gdotaccent" unicode="&#x121;" horiz-adv-x="466" 
d="M267 433q26 0 52 -5t49 -19l8 14h91l-93 -434q-12 -55 -34.5 -93.5t-54.5 -62.5t-72.5 -35t-87.5 -11q-37 0 -75 5.5t-61 13.5l34 88q15 -6 42.5 -12t62.5 -6q45 0 78 20t44 71l11 52q-44 -29 -103 -29q-65 0 -100 39.5t-35 111.5q0 76 20 131t54 91t78 53t92 17zM211 69
q35 0 63 20l54 257q-11 5 -21 7t-19 2q-69 0 -104.5 -53.5t-35.5 -142.5q0 -40 14 -65t49 -25zM362 511h-124l21 97h124z" />
    <glyph glyph-name="uni0122" unicode="&#x122;" horiz-adv-x="595" 
d="M392 618q64 0 123 -16.5t98 -52.5l-69 -76q-23 20 -62 34t-90 14q-56 0 -98 -19.5t-70.5 -55t-43 -85.5t-14.5 -110q0 -77 44 -122t136 -45q13 0 26 1t27 4l31 147h-120l20 95h242l-68 -315q-45 -14 -88 -20t-93 -6q-62 0 -113.5 15.5t-88.5 46.5t-58 77.5t-21 109.5
q0 88 26.5 158.5t73 119.5t111 75t139.5 26zM127 -225q36 42 53.5 83t26.5 92h105q-8 -40 -18.5 -72t-25.5 -59t-34 -50.5t-44 -46.5z" />
    <glyph glyph-name="uni0123" unicode="&#x123;" horiz-adv-x="466" 
d="M267 433q26 0 52 -5t49 -19l8 14h91l-93 -434q-12 -55 -34.5 -93.5t-54.5 -62.5t-72.5 -35t-87.5 -11q-37 0 -75 5.5t-61 13.5l34 88q15 -6 42.5 -12t62.5 -6q45 0 78 20t44 71l11 52q-44 -29 -103 -29q-65 0 -100 39.5t-35 111.5q0 76 20 131t54 91t78 53t92 17zM211 69
q35 0 63 20l54 257q-11 5 -21 7t-19 2q-69 0 -104.5 -53.5t-35.5 -142.5q0 -40 14 -65t49 -25zM427.005 647.986q-35.998 -41.9971 -53.4961 -82.9951q-17.499 -40.9971 -26.499 -91.9941h-104.993q7.99902 39.9971 18.499 71.9951q10.499 31.998 25.498 58.9971
q14.999 26.998 33.998 50.4971q18.999 23.498 43.9971 46.4971z" />
    <glyph glyph-name="Hcircumflex" unicode="&#x124;" horiz-adv-x="599" 
d="M624 608l-129 -608h-124l54 255h-238l-54 -255h-124l129 608h125l-55 -254h238l54 254h124zM500 819l56 -146h-101l-36 85h-10l-83 -85h-105l130 146h149z" />
    <glyph glyph-name="hcircumflex" unicode="&#x125;" horiz-adv-x="458" 
d="M3 0l133 626l126 16l-53 -246q27 18 56.5 27.5t58.5 9.5q61 0 88 -26t27 -76q0 -13 -2 -27t-5 -30l-58 -274h-123l56 259l4 22t2 22q0 17 -7.5 28.5t-30.5 11.5q-45 0 -87 -48l-63 -295h-122zM325 843l56 -146h-101l-36 85h-10l-83 -85h-105l130 146h149z" />
    <glyph glyph-name="Hbar" unicode="&#x126;" horiz-adv-x="632" 
d="M667 426h-607l19 90h607zM644 608l-129 -608h-124l54 255h-238l-54 -255h-124l129 608h125l-55 -254h238l54 254h124z" />
    <glyph glyph-name="hbar" unicode="&#x127;" horiz-adv-x="458" 
d="M323 477h-279l17 82h280zM3 0l133 626l126 16l-53 -246q27 18 56.5 27.5t58.5 9.5q61 0 88 -26t27 -76q0 -13 -2 -27t-5 -30l-58 -274h-123l56 259l4 22t2 22q0 17 -7.5 28.5t-30.5 11.5q-45 0 -87 -48l-63 -295h-122z" />
    <glyph glyph-name="Itilde" unicode="&#x128;" horiz-adv-x="238" 
d="M138 608h125l-130 -608h-124zM392 732q-24 -20 -54 -33.5t-64 -13.5q-22 0 -39 5t-32.5 11.5t-30.5 11.5t-32 5q-23 0 -42 -8t-37 -20l-30 68q24 20 54 33t64 13q22 0 39 -5t32.5 -11t30.5 -11t32 -5q23 0 42.5 8t36.5 20z" />
    <glyph glyph-name="itilde" unicode="&#x129;" horiz-adv-x="215" 
d="M324 547q-17 -17 -45 -31t-57 -14q-17 0 -29.5 4.5t-24 10.5t-22 10.5t-23.5 4.5q-18 0 -33.5 -7t-30.5 -18l-30 68q21 19 47.5 31t55.5 12q16 0 29 -4.5t24 -10t22 -10t24 -4.5q18 0 32.5 7t28.5 18zM3 0l90 423h122l-90 -423h-122z" />
    <glyph glyph-name="Imacron" unicode="&#x12a;" horiz-adv-x="238" 
d="M138 608h125l-130 -608h-124zM366 699h-293l19 91h293z" />
    <glyph glyph-name="imacron" unicode="&#x12b;" horiz-adv-x="215" 
d="M310 514h-293l19 91h293zM3 0l90 423h122l-90 -423h-122z" />
    <glyph glyph-name="Iogonek" unicode="&#x12e;" horiz-adv-x="238" 
d="M101 -189q-20 -9 -50 -14.5t-58 -5.5q-99 0 -99 72q0 54 29.5 83.5t87.5 54.5q10 4 24.5 9.5t29.5 10t29.5 8.5t25.5 6l13 -35q-14 -4 -33 -11.5t-38 -18.5q-22 -12 -35 -28.5t-13 -44.5q0 -30 36 -30q11 0 22 1.5t21 5.5zM138 608h125l-130 -608h-124z" />
    <glyph glyph-name="iogonek" unicode="&#x12f;" horiz-adv-x="215" 
d="M-4 -209q-99 0 -99 73q0 27 7 47.5t21 37t35 29.5t50 25q10 4 24 9t29 9t29.5 7.5t25.5 5.5l7 -34q-13 -4 -31.5 -12t-32.5 -18q-24 -17 -34 -35.5t-10 -37.5q0 -30 35 -30q11 0 22.5 1.5t21.5 5.5l8 -63q-20 -9 -50 -14.5t-58 -5.5zM111 511l20 97h125l-21 -97h-124z
M3 0l90 423h122l-90 -423h-122z" />
    <glyph glyph-name="Idotaccent" unicode="&#x130;" horiz-adv-x="238" 
d="M138 608h125l-130 -608h-124zM283 696h-124l21 97h124z" />
    <glyph glyph-name="dotlessi" unicode="&#x131;" horiz-adv-x="215" 
d="M3 0l90 423h122l-90 -423h-122z" />
    <glyph glyph-name="Jcircumflex" unicode="&#x134;" horiz-adv-x="336" 
d="M348 608l-98 -459q-9 -44 -26 -74t-42 -48t-58.5 -26t-76.5 -8q-19 0 -43 2.5t-45 9.5l21 93q29 -8 57 -8q38 0 61 18.5t33 63.5l92 436h125zM420 819l56 -146h-101l-36 85h-10l-83 -85h-105l130 146h149z" />
    <glyph glyph-name="jcircumflex" unicode="&#x135;" horiz-adv-x="215" 
d="M-86 -126h10q32 0 46 17t23 60l101 472h121l-97 -457q-11 -52 -28.5 -86.5t-44 -55t-62 -29t-81.5 -8.5h-7zM278 634l56 -146h-101l-36 85h-10l-83 -85h-105l130 146h149z" />
    <glyph glyph-name="uni0136" unicode="&#x136;" horiz-adv-x="533" 
d="M133 0h-124l129 608h125l-55 -256h43l234 256h144l-287 -308l161 -300h-141l-131 256h-43zM83 -225q36 42 53.5 83t26.5 92h105q-8 -40 -18.5 -72t-25.5 -59t-34 -50.5t-44 -46.5z" />
    <glyph glyph-name="uni0137" unicode="&#x137;" horiz-adv-x="438" 
d="M3 0l133 626l125 16l-79 -368h29l147 149h135l-198 -196l117 -227h-134l-87 183h-28l-39 -183h-121zM43 -225q36 42 53.5 83t26.5 92h105q-8 -40 -18.5 -72t-25.5 -59t-34 -50.5t-44 -46.5z" />
    <glyph glyph-name="kgreenlandic" unicode="&#x138;" horiz-adv-x="438" 
d="M3 0l90 423h121l-34 -160h30l152 160h134l-205 -203l121 -220h-135l-89 172h-28l-36 -172h-121z" />
    <glyph glyph-name="Lacute" unicode="&#x139;" horiz-adv-x="428" 
d="M393 98l-21 -98h-363l129 608h125l-109 -510h239zM463 820l-154 -146h-114l131 146h137z" />
    <glyph glyph-name="lacute" unicode="&#x13a;" horiz-adv-x="229" 
d="M424 842l-154 -146h-114l131 146h137zM172 -3q-5 -1 -10 -1q-5 -1 -11 -1h-11q-59 0 -86.5 22t-27.5 69q0 23 6 50l104 490l125 16l-106 -498q-6 -26 -6 -37q0 -14 9 -19.5t32 -6.5z" />
    <glyph glyph-name="uni013B" unicode="&#x13b;" horiz-adv-x="428" 
d="M393 98l-21 -98h-363l129 608h125l-109 -510h239zM36 -225q36 42 53.5 83t26.5 92h105q-8 -40 -18.5 -72t-25.5 -59t-34 -50.5t-44 -46.5z" />
    <glyph glyph-name="uni013C" unicode="&#x13c;" horiz-adv-x="229" 
d="M172 -3q-5 -1 -10 -1q-5 -1 -11 -1h-11q-59 0 -86.5 22t-27.5 69q0 23 6 50l104 490l125 16l-106 -498q-6 -26 -6 -37q0 -14 9 -19.5t32 -6.5zM-63 -225q36 42 53.5 83t26.5 92h105q-8 -40 -18.5 -72t-25.5 -59t-34 -50.5t-44 -46.5z" />
    <glyph glyph-name="Lcaron" unicode="&#x13d;" horiz-adv-x="428" 
d="M368 479h-91l53 155h130zM393 98l-21 -98h-363l129 608h125l-109 -510h239z" />
    <glyph glyph-name="lcaron" unicode="&#x13e;" horiz-adv-x="340" 
d="M347 479h-80l53 155h117zM172 -3q-5 -1 -10 -1q-5 -1 -11 -1h-11q-59 0 -86.5 22t-27.5 69q0 23 6 50l104 490l125 16l-106 -498q-6 -26 -6 -37q0 -14 9 -19.5t32 -6.5z" />
    <glyph glyph-name="Lslash" unicode="&#x141;" horiz-adv-x="428" 
d="M-9 165l20 97l358 185l-21 -96zM393 98l-21 -98h-363l129 608h125l-109 -510h239z" />
    <glyph glyph-name="lslash" unicode="&#x142;" horiz-adv-x="242" 
d="M-23 177l20 97l287 163l-20 -96zM172 -3q-5 -1 -10 -1q-5 -1 -11 -1h-11q-59 0 -86.5 22t-27.5 69q0 23 6 50l104 490l125 16l-106 -498q-6 -26 -6 -37q0 -14 9 -19.5t32 -6.5z" />
    <glyph glyph-name="Nacute" unicode="&#x143;" horiz-adv-x="647" 
d="M674 608l-130 -608h-214l-80 512h-8l-109 -512h-124l129 608h215l80 -512h7l109 512h125zM625 820l-154 -146h-114l131 146h137z" />
    <glyph glyph-name="nacute" unicode="&#x144;" horiz-adv-x="458" 
d="M3 0l55 257l25 166h98v-48q31 27 69 42.5t74 15.5q61 0 88 -26t27 -76q0 -13 -2 -27t-5 -30l-58 -274h-123l56 259l4 22t2 22q0 17 -7.5 28.5t-30.5 11.5q-45 0 -87 -47l-63 -296h-122zM469 634l-154 -146h-114l131 146h137z" />
    <glyph glyph-name="uni0145" unicode="&#x145;" horiz-adv-x="647" 
d="M674 608l-130 -608h-214l-80 512h-8l-109 -512h-124l129 608h215l80 -512h7l109 512h125zM139 -225q36 42 53.5 83t26.5 92h105q-8 -40 -18.5 -72t-25.5 -59t-34 -50.5t-44 -46.5z" />
    <glyph glyph-name="uni0146" unicode="&#x146;" horiz-adv-x="458" 
d="M3 0l55 257l25 166h98v-48q31 27 69 42.5t74 15.5q61 0 88 -26t27 -76q0 -13 -2 -27t-5 -30l-58 -274h-123l56 259l4 22t2 22q0 17 -7.5 28.5t-30.5 11.5q-45 0 -87 -47l-63 -296h-122zM50 -225q36 42 53.5 83t26.5 92h105q-8 -40 -18.5 -72t-25.5 -59t-34 -50.5
t-44 -46.5z" />
    <glyph glyph-name="Ncaron" unicode="&#x147;" horiz-adv-x="647" 
d="M674 608l-130 -608h-214l-80 512h-8l-109 -512h-124l129 608h215l80 -512h7l109 512h125zM332 673l-59 146h103l39 -85h10l79 85h104l-125 -146h-151z" />
    <glyph glyph-name="ncaron" unicode="&#x148;" horiz-adv-x="458" 
d="M3 0l55 257l25 166h98v-48q31 27 69 42.5t74 15.5q61 0 88 -26t27 -76q0 -13 -2 -27t-5 -30l-58 -274h-123l56 259l4 22t2 22q0 17 -7.5 28.5t-30.5 11.5q-45 0 -87 -47l-63 -296h-122zM213 488l-59 146h103l39 -85h10l79 85h104l-125 -146h-151z" />
    <glyph glyph-name="Eng" unicode="&#x14a;" horiz-adv-x="647" 
d="M314 -118h10q32 0 55 17t32 60l20 94l124 -1l-17 -80q-11 -51 -29.5 -85.5t-47 -54.5t-68 -28.5t-91.5 -8.5h-7zM674 608l-130 -608h-214l-80 512h-8l-109 -512h-124l129 608h215l80 -512h7l109 512h125z" />
    <glyph glyph-name="eng" unicode="&#x14b;" horiz-adv-x="458" 
d="M374 0l-6 -26q-11 -52 -28.5 -86.5t-44 -55t-62 -29t-81.5 -8.5h-7l19 87h10q32 0 46 17t23 61l8 40h123zM3 0l55 257l25 166h98v-48q31 27 69 42.5t74 15.5q61 0 88 -26t27 -76q0 -13 -2 -27t-5 -30l-58 -274h-123l56 259l4 22t2 22q0 17 -7.5 28.5t-30.5 11.5
q-45 0 -87 -47l-63 -296h-122z" />
    <glyph glyph-name="Omacron" unicode="&#x14c;" horiz-adv-x="626" 
d="M272 -10q-113 0 -171.5 57.5t-58.5 171.5q0 91 24.5 165t69.5 126t109 80t144 28q113 0 171.5 -58t58.5 -171q0 -92 -24.5 -166t-70 -126t-109.5 -79.5t-143 -27.5zM373 525q-41 0 -77 -21t-64 -59.5t-44 -94t-16 -124.5t30 -105t84 -36q40 0 76.5 20.5t64.5 59.5
t44 94.5t16 124.5q0 70 -30 105.5t-84 35.5zM559 699h-293l19 91h293z" />
    <glyph glyph-name="omacron" unicode="&#x14d;" horiz-adv-x="476" 
d="M188 -10q-89 0 -128 41t-39 111q0 66 18.5 119.5t53 92t84.5 59t113 20.5q89 0 128.5 -42t39.5 -112q0 -66 -18.5 -119.5t-53.5 -91t-85 -58t-113 -20.5zM206 72q27 0 50.5 14t41 40t27 63t9.5 84q0 32 -15 55.5t-47 23.5q-27 0 -50 -14t-40 -40.5t-26.5 -64t-9.5 -83.5
q0 -33 14.5 -55.5t45.5 -22.5zM460 514h-293l19 91h293z" />
    <glyph glyph-name="Ohungarumlaut" unicode="&#x150;" horiz-adv-x="626" 
d="M272 -10q-113 0 -171.5 57.5t-58.5 171.5q0 91 24.5 165t69.5 126t109 80t144 28q113 0 171.5 -58t58.5 -171q0 -92 -24.5 -166t-70 -126t-109.5 -79.5t-143 -27.5zM373 525q-41 0 -77 -21t-64 -59.5t-44 -94t-16 -124.5t30 -105t84 -36q40 0 76.5 20.5t64.5 59.5
t44 94.5t16 124.5q0 70 -30 105.5t-84 35.5zM371 820h125l-154 -146h-102zM525 674h-102l131 146h125z" />
    <glyph glyph-name="ohungarumlaut" unicode="&#x151;" horiz-adv-x="476" 
d="M188 -10q-89 0 -128 41t-39 111q0 66 18.5 119.5t53 92t84.5 59t113 20.5q89 0 128.5 -42t39.5 -112q0 -66 -18.5 -119.5t-53.5 -91t-85 -58t-113 -20.5zM206 72q27 0 50.5 14t41 40t27 63t9.5 84q0 32 -15 55.5t-47 23.5q-27 0 -50 -14t-40 -40.5t-26.5 -64t-9.5 -83.5
q0 -33 14.5 -55.5t45.5 -22.5zM280 634h125l-154 -146h-102zM434 488h-102l131 146h125z" />
    <glyph glyph-name="OE" unicode="&#x152;" horiz-adv-x="900" 
d="M833 98l-21 -98h-385l7 34q-35 -21 -75 -32.5t-87 -11.5q-113 0 -171.5 57.5t-58.5 171.5q0 91 24.5 165t69.5 126t109 80t144 28q106 0 157 -54l10 44h375l-21 -98h-260l-32 -149h252l-20 -96h-252l-36 -167h271zM373 525q-41 0 -77 -21t-64 -59.5t-44 -94t-16 -124.5
t30 -105t84 -36q40 0 76.5 20.5t64.5 59.5t44 94.5t16 124.5q0 70 -30 105.5t-84 35.5z" />
    <glyph glyph-name="oe" unicode="&#x153;" horiz-adv-x="750" 
d="M684 35q-14 -8 -35 -15.5t-45.5 -14.5t-51 -11t-52.5 -4q-48 0 -85.5 13.5t-59.5 45.5q-32 -28 -74 -43.5t-93 -15.5q-89 0 -128 41t-39 111q0 66 18.5 119.5t53 92t84.5 59t113 20.5q52 0 85.5 -15t52.5 -41q30 26 69 41t88 15q73 0 114 -28.5t41 -82.5q0 -49 -27 -79.5
t-69.5 -48t-94.5 -25.5t-102 -11v-11q0 -36 21 -54t68 -18q45 0 82.5 10.5t65.5 24.5v-75zM272 352q-27 0 -50 -14t-40 -40.5t-26.5 -64t-9.5 -83.5q0 -33 14.5 -55.5t45.5 -22.5q27 0 50.5 14t41 40t27 63t9.5 84q0 32 -15 55.5t-47 23.5zM566 354q-27 0 -46 -10.5
t-32.5 -28t-22 -40.5t-12.5 -47q33 2 63 6.5t52.5 13.5t36 23t13.5 37q0 22 -14.5 34t-37.5 12z" />
    <glyph glyph-name="Racute" unicode="&#x154;" horiz-adv-x="540" 
d="M254 239h-71l-51 -239h-123l129 608h205q45 0 83.5 -7.5t66.5 -25.5t44 -47t16 -71q0 -45 -13.5 -79.5t-36.5 -59.5t-55.5 -41.5t-69.5 -26.5l99 -250h-135zM203 335h107q20 0 40 5.5t36 18t26 33.5t10 51q0 21 -10 34t-25.5 20.5t-34 10t-35.5 2.5h-76zM549 820
l-154 -146h-114l131 146h137z" />
    <glyph glyph-name="racute" unicode="&#x155;" horiz-adv-x="343" 
d="M3 0l55 257l25 166h98v-65q27 35 62.5 55t80.5 20q21 0 36 -3t25 -8l-42 -97q-20 10 -46 10q-70 0 -115 -71l-57 -264h-122zM428 634l-154 -146h-114l131 146h137z" />
    <glyph glyph-name="uni0156" unicode="&#x156;" horiz-adv-x="540" 
d="M254 239h-71l-51 -239h-123l129 608h205q45 0 83.5 -7.5t66.5 -25.5t44 -47t16 -71q0 -45 -13.5 -79.5t-36.5 -59.5t-55.5 -41.5t-69.5 -26.5l99 -250h-135zM203 335h107q20 0 40 5.5t36 18t26 33.5t10 51q0 21 -10 34t-25.5 20.5t-34 10t-35.5 2.5h-76zM97 -225
q36 42 53.5 83t26.5 92h105q-8 -40 -18.5 -72t-25.5 -59t-34 -50.5t-44 -46.5z" />
    <glyph glyph-name="uni0157" unicode="&#x157;" horiz-adv-x="343" 
d="M3 0l55 257l25 166h98v-65q27 35 62.5 55t80.5 20q21 0 36 -3t25 -8l-42 -97q-20 10 -46 10q-70 0 -115 -71l-57 -264h-122zM-77 -225q36 42 53.5 83t26.5 92h105q-8 -40 -18.5 -72t-25.5 -59t-34 -50.5t-44 -46.5z" />
    <glyph glyph-name="Rcaron" unicode="&#x158;" horiz-adv-x="540" 
d="M254 239h-71l-51 -239h-123l129 608h205q45 0 83.5 -7.5t66.5 -25.5t44 -47t16 -71q0 -45 -13.5 -79.5t-36.5 -59.5t-55.5 -41.5t-69.5 -26.5l99 -250h-135zM203 335h107q20 0 40 5.5t36 18t26 33.5t10 51q0 21 -10 34t-25.5 20.5t-34 10t-35.5 2.5h-76zM278 673l-59 146
h103l39 -85h10l79 85h104l-125 -146h-151z" />
    <glyph glyph-name="rcaron" unicode="&#x159;" horiz-adv-x="343" 
d="M3 0l55 257l25 166h98v-65q27 35 62.5 55t80.5 20q21 0 36 -3t25 -8l-42 -97q-20 10 -46 10q-70 0 -115 -71l-57 -264h-122zM155 488l-59 146h103l39 -85h10l79 85h104l-125 -146h-151z" />
    <glyph glyph-name="Sacute" unicode="&#x15a;" horiz-adv-x="498" 
d="M60 122q32 -15 69 -23t70 -8q26 0 50 4.5t42 14t29 24.5t11 35q0 22 -12 35t-20 17q-32 17 -66 30.5t-69 30.5q-40 20 -64 53t-24 77q0 51 18.5 90t53 64.5t82 38.5t106.5 13q46 0 91 -8.5t83 -28.5l-50 -89q-25 11 -57.5 19.5t-74.5 8.5q-51 0 -87 -18.5t-36 -59.5
q0 -24 14 -38t28 -21q26 -13 62 -27t67 -31q33 -18 57 -50t24 -80q0 -51 -19.5 -89.5t-54.5 -64t-83 -38.5t-106 -13q-49 0 -95.5 10t-91.5 32zM555 820l-154 -146h-114l131 146h137z" />
    <glyph glyph-name="sacute" unicode="&#x15b;" horiz-adv-x="394" 
d="M41 106q25 -13 56.5 -21t65.5 -8q9 0 22 1t24 4.5t19 11.5t8 22q0 17 -11.5 26t-35.5 20q-11 5 -30.5 12.5t-29.5 12.5q-40 17 -63 39.5t-23 59.5q0 40 17.5 68t46.5 45.5t65.5 25.5t75.5 8q45 0 82 -8.5t57 -17.5l-35 -86q-25 13 -51.5 20t-61.5 7q-9 0 -22 -1
t-25.5 -4.5t-21 -11.5t-8.5 -22q0 -16 12 -24.5t34 -17.5q6 -3 15 -6.5t18.5 -7t18.5 -7t14 -5.5q35 -14 58.5 -37.5t23.5 -60.5q0 -42 -17 -71t-45 -47.5t-65 -26.5t-77 -8q-51 0 -84.5 8.5t-65.5 22.5zM451 634l-154 -146h-114l131 146h137z" />
    <glyph glyph-name="Scircumflex" unicode="&#x15c;" horiz-adv-x="498" 
d="M60 122q32 -15 69 -23t70 -8q26 0 50 4.5t42 14t29 24.5t11 35q0 22 -12 35t-20 17q-32 17 -66 30.5t-69 30.5q-40 20 -64 53t-24 77q0 51 18.5 90t53 64.5t82 38.5t106.5 13q46 0 91 -8.5t83 -28.5l-50 -89q-25 11 -57.5 19.5t-74.5 8.5q-51 0 -87 -18.5t-36 -59.5
q0 -24 14 -38t28 -21q26 -13 62 -27t67 -31q33 -18 57 -50t24 -80q0 -51 -19.5 -89.5t-54.5 -64t-83 -38.5t-106 -13q-49 0 -95.5 10t-91.5 32zM460 819l56 -146h-101l-36 85h-10l-83 -85h-105l130 146h149z" />
    <glyph glyph-name="scircumflex" unicode="&#x15d;" horiz-adv-x="394" 
d="M41 106q25 -13 56.5 -21t65.5 -8q9 0 22 1t24 4.5t19 11.5t8 22q0 17 -11.5 26t-35.5 20q-11 5 -30.5 12.5t-29.5 12.5q-40 17 -63 39.5t-23 59.5q0 40 17.5 68t46.5 45.5t65.5 25.5t75.5 8q45 0 82 -8.5t57 -17.5l-35 -86q-25 13 -51.5 20t-61.5 7q-9 0 -22 -1
t-25.5 -4.5t-21 -11.5t-8.5 -22q0 -16 12 -24.5t34 -17.5q6 -3 15 -6.5t18.5 -7t18.5 -7t14 -5.5q35 -14 58.5 -37.5t23.5 -60.5q0 -42 -17 -71t-45 -47.5t-65 -26.5t-77 -8q-51 0 -84.5 8.5t-65.5 22.5zM370 634l56 -146h-101l-36 85h-10l-83 -85h-105l130 146h149z" />
    <glyph glyph-name="Scedilla" unicode="&#x15e;" horiz-adv-x="498" 
d="M60 122q32 -15 69 -23t70 -8q26 0 50 4.5t42 14t29 24.5t11 35q0 22 -12 35t-20 17q-32 17 -66 30.5t-69 30.5q-40 20 -64 53t-24 77q0 51 18.5 90t53 64.5t82 38.5t106.5 13q46 0 91 -8.5t83 -28.5l-50 -89q-25 11 -57.5 19.5t-74.5 8.5q-51 0 -87 -18.5t-36 -59.5
q0 -24 14 -38t28 -21q26 -13 62 -27t67 -31q33 -18 57 -50t24 -80q0 -51 -19.5 -89.5t-54.5 -64t-83 -38.5t-106 -13q-49 0 -95.5 10t-91.5 32zM88 -126q14 -5 26 -7.5t27 -2.5q25 0 40.5 8.5t15.5 32.5q0 18 -16 24t-52 12l35 58q72 -6 109 -25t37 -62q0 -57 -38.5 -89.5
t-130.5 -32.5q-27 0 -53 5t-41 11z" />
    <glyph glyph-name="scedilla" unicode="&#x15f;" horiz-adv-x="394" 
d="M41 106q25 -13 56.5 -21t65.5 -8q9 0 22 1t24 4.5t19 11.5t8 22q0 17 -11.5 26t-35.5 20q-11 5 -30.5 12.5t-29.5 12.5q-40 17 -63 39.5t-23 59.5q0 40 17.5 68t46.5 45.5t65.5 25.5t75.5 8q45 0 82 -8.5t57 -17.5l-35 -86q-25 13 -51.5 20t-61.5 7q-9 0 -22 -1
t-25.5 -4.5t-21 -11.5t-8.5 -22q0 -16 12 -24.5t34 -17.5q6 -3 15 -6.5t18.5 -7t18.5 -7t14 -5.5q35 -14 58.5 -37.5t23.5 -60.5q0 -42 -17 -71t-45 -47.5t-65 -26.5t-77 -8q-51 0 -84.5 8.5t-65.5 22.5zM44 -126q14 -5 26 -7.5t27 -2.5q25 0 40.5 8.5t15.5 32.5
q0 18 -16 24t-52 12l35 58q72 -6 109 -25t37 -62q0 -57 -38.5 -89.5t-130.5 -32.5q-27 0 -53 5t-41 11z" />
    <glyph glyph-name="Scaron" unicode="&#x160;" horiz-adv-x="498" 
d="M60 122q32 -15 69 -23t70 -8q26 0 50 4.5t42 14t29 24.5t11 35q0 22 -12 35t-20 17q-32 17 -66 30.5t-69 30.5q-40 20 -64 53t-24 77q0 51 18.5 90t53 64.5t82 38.5t106.5 13q46 0 91 -8.5t83 -28.5l-50 -89q-25 11 -57.5 19.5t-74.5 8.5q-51 0 -87 -18.5t-36 -59.5
q0 -24 14 -38t28 -21q26 -13 62 -27t67 -31q33 -18 57 -50t24 -80q0 -51 -19.5 -89.5t-54.5 -64t-83 -38.5t-106 -13q-49 0 -95.5 10t-91.5 32zM268 673l-59 146h103l39 -85h10l79 85h104l-125 -146h-151z" />
    <glyph glyph-name="scaron" unicode="&#x161;" horiz-adv-x="394" 
d="M41 106q25 -13 56.5 -21t65.5 -8q9 0 22 1t24 4.5t19 11.5t8 22q0 17 -11.5 26t-35.5 20q-11 5 -30.5 12.5t-29.5 12.5q-40 17 -63 39.5t-23 59.5q0 40 17.5 68t46.5 45.5t65.5 25.5t75.5 8q45 0 82 -8.5t57 -17.5l-35 -86q-25 13 -51.5 20t-61.5 7q-9 0 -22 -1
t-25.5 -4.5t-21 -11.5t-8.5 -22q0 -16 12 -24.5t34 -17.5q6 -3 15 -6.5t18.5 -7t18.5 -7t14 -5.5q35 -14 58.5 -37.5t23.5 -60.5q0 -42 -17 -71t-45 -47.5t-65 -26.5t-77 -8q-51 0 -84.5 8.5t-65.5 22.5zM190 488l-59 146h103l39 -85h10l79 85h104l-125 -146h-151z" />
    <glyph glyph-name="uni0162" unicode="&#x162;" horiz-adv-x="500" 
d="M564 608l-20 -98h-174l-108 -510h-124l108 510h-173l21 98h470zM65 -126q14 -5 26 -7.5t27 -2.5q25 0 40.5 8.5t15.5 32.5q0 18 -16 24t-52 12l35 58q72 -6 109 -25t37 -62q0 -57 -38.5 -89.5t-130.5 -32.5q-27 0 -53 5t-41 11z" />
    <glyph glyph-name="uni0163" unicode="&#x163;" horiz-adv-x="353" 
d="M312 22q-35 -18 -67.5 -25t-72.5 -7q-119 0 -119 103q0 10 1.5 21t3.5 23l42 198h-70l17 78l70 8l18 81l126 21l-21 -100h140l-19 -87h-139l-36 -170l-4 -22t-2 -20q0 -18 9 -29t35 -11q25 0 46.5 4.5t41.5 12.5v-79zM40 -126q14 -5 26 -7.5t27 -2.5q25 0 40.5 8.5
t15.5 32.5q0 18 -16 24t-52 12l35 58q72 -6 109 -25t37 -62q0 -57 -38.5 -89.5t-130.5 -32.5q-27 0 -53 5t-41 11z" />
    <glyph glyph-name="Tcaron" unicode="&#x164;" horiz-adv-x="500" 
d="M564 608l-20 -98h-174l-108 -510h-124l108 510h-173l21 98h470zM267 673l-59 146h103l39 -85h10l79 85h104l-125 -146h-151z" />
    <glyph glyph-name="tcaron" unicode="&#x165;" horiz-adv-x="371" 
d="M402 479h-80l53 155h120zM312 22q-35 -18 -67.5 -25t-72.5 -7q-119 0 -119 103q0 10 1.5 21t3.5 23l42 198h-70l17 78l70 8l18 81l126 21l-21 -100h140l-19 -87h-139l-36 -170l-4 -22t-2 -20q0 -18 9 -29t35 -11q25 0 46.5 4.5t41.5 12.5v-79z" />
    <glyph glyph-name="Tbar" unicode="&#x166;" horiz-adv-x="500" 
d="M55 273l20 95h411l-21 -95h-410zM564 608l-20 -98h-174l-108 -510h-124l108 510h-173l21 98h470z" />
    <glyph glyph-name="tbar" unicode="&#x167;" horiz-adv-x="353" 
d="M1 183l18 86h324l-18 -86h-324zM312 22q-35 -18 -67.5 -25t-72.5 -7q-119 0 -119 103q0 10 1.5 21t3.5 23l42 198h-70l17 78l70 8l18 81l126 21l-21 -100h140l-19 -87h-139l-36 -170l-4 -22t-2 -20q0 -18 9 -29t35 -11q25 0 46.5 4.5t41.5 12.5v-79z" />
    <glyph glyph-name="Utilde" unicode="&#x168;" horiz-adv-x="578" 
d="M608 608l-77 -365q-29 -134 -100.5 -193.5t-187.5 -59.5q-67 0 -108.5 20.5t-62 58t-21.5 88.5t12 113l71 338h124l-79 -373q-6 -26 -7 -52.5t6 -48t25.5 -35t51.5 -13.5t57.5 9t42.5 28.5t31 50.5t22 76l76 358h124zM565 732q-24 -20 -54 -33.5t-64 -13.5q-22 0 -39 5
t-32.5 11.5t-30.5 11.5t-32 5q-23 0 -42 -8t-37 -20l-30 68q24 20 54 33t64 13q22 0 39 -5t32.5 -11t30.5 -11t32 -5q23 0 42.5 8t36.5 20z" />
    <glyph glyph-name="utilde" unicode="&#x169;" horiz-adv-x="459" 
d="M211 423l-56 -259q-2 -11 -4 -23t-2 -22q0 -17 7.5 -28t30.5 -11q45 0 86 47l64 296h122l-55 -257l-25 -166h-98v48q-32 -28 -70 -43t-73 -15q-61 0 -88 26t-27 76q0 13 2.5 29t4.5 28l58 274h123zM468 547q-24 -20 -54 -33.5t-64 -13.5q-22 0 -39 5t-32.5 11.5
t-30.5 11.5t-32 5q-23 0 -42 -8t-37 -20l-30 68q24 20 54 33t64 13q22 0 39 -5t32.5 -11t30.5 -11t32 -5q23 0 42.5 8t36.5 20z" />
    <glyph glyph-name="Umacron" unicode="&#x16a;" horiz-adv-x="578" 
d="M608 608l-77 -365q-29 -134 -100.5 -193.5t-187.5 -59.5q-67 0 -108.5 20.5t-62 58t-21.5 88.5t12 113l71 338h124l-79 -373q-6 -26 -7 -52.5t6 -48t25.5 -35t51.5 -13.5t57.5 9t42.5 28.5t31 50.5t22 76l76 358h124zM539 699h-293l19 91h293z" />
    <glyph glyph-name="umacron" unicode="&#x16b;" horiz-adv-x="459" 
d="M211 423l-56 -259q-2 -11 -4 -23t-2 -22q0 -17 7.5 -28t30.5 -11q45 0 86 47l64 296h122l-55 -257l-25 -166h-98v48q-32 -28 -70 -43t-73 -15q-61 0 -88 26t-27 76q0 13 2.5 29t4.5 28l58 274h123zM442 514h-293l19 91h293z" />
    <glyph glyph-name="Ubreve" unicode="&#x16c;" horiz-adv-x="578" 
d="M608 608l-77 -365q-29 -134 -100.5 -193.5t-187.5 -59.5q-67 0 -108.5 20.5t-62 58t-21.5 88.5t12 113l71 338h124l-79 -373q-6 -26 -7 -52.5t6 -48t25.5 -35t51.5 -13.5t57.5 9t42.5 28.5t31 50.5t22 76l76 358h124zM565 818q-7 -75 -48.5 -114.5t-126.5 -39.5
q-37 0 -62.5 9.5t-41 26t-22.5 39t-7 48.5q0 16 3 31h88q-2 -8 -2 -13.5v-8.5q0 -24 12 -38.5t41 -14.5q70 0 76 75h90z" />
    <glyph glyph-name="ubreve" unicode="&#x16d;" horiz-adv-x="459" 
d="M211 423l-56 -259q-2 -11 -4 -23t-2 -22q0 -17 7.5 -28t30.5 -11q45 0 86 47l64 296h122l-55 -257l-25 -166h-98v48q-32 -28 -70 -43t-73 -15q-61 0 -88 26t-27 76q0 13 2.5 29t4.5 28l58 274h123zM459 634q-7 -75 -48.5 -114.5t-126.5 -39.5q-37 0 -62.5 9.5t-41 26
t-22.5 39t-7 48.5q0 16 3 31h88q-2 -8 -2 -13.5v-8.5q0 -24 12 -38.5t41 -14.5q70 0 76 75h90z" />
    <glyph glyph-name="Uring" unicode="&#x16e;" horiz-adv-x="578" 
d="M608 608l-77 -365q-29 -134 -100.5 -193.5t-187.5 -59.5q-67 0 -108.5 20.5t-62 58t-21.5 88.5t12 113l71 338h124l-79 -373q-6 -26 -7 -52.5t6 -48t25.5 -35t51.5 -13.5t57.5 9t42.5 28.5t31 50.5t22 76l76 358h124zM373 652q-49 0 -72.5 25.5t-23.5 58.5
q0 56 34.5 88.5t100.5 32.5q48 0 72 -26t24 -59q0 -57 -34.5 -88.5t-100.5 -31.5zM385 716q22 0 34.5 11t12.5 33q0 14 -8.5 23t-23.5 9q-48 0 -48 -44q0 -14 8.5 -23t24.5 -9z" />
    <glyph glyph-name="uring" unicode="&#x16f;" horiz-adv-x="459" 
d="M211 423l-56 -259q-2 -11 -4 -23t-2 -22q0 -17 7.5 -28t30.5 -11q45 0 86 47l64 296h122l-55 -257l-25 -166h-98v48q-32 -28 -70 -43t-73 -15q-61 0 -88 26t-27 76q0 13 2.5 29t4.5 28l58 274h123zM278 457q-49 0 -72.5 25.5t-23.5 58.5q0 56 34.5 88.5t100.5 32.5
q48 0 72 -26t24 -59q0 -57 -34.5 -88.5t-100.5 -31.5zM290 521q22 0 34.5 11t12.5 33q0 14 -8.5 23t-23.5 9q-48 0 -48 -44q0 -14 8.5 -23t24.5 -9z" />
    <glyph glyph-name="Uhungarumlaut" unicode="&#x170;" horiz-adv-x="573" 
d="M608 608l-77 -365q-29 -134 -100.5 -193.5t-187.5 -59.5q-67 0 -108.5 20.5t-62 58t-21.5 88.5t12 113l71 338h124l-79 -373q-6 -26 -7 -52.5t6 -48t25.5 -35t51.5 -13.5t57.5 9t42.5 28.5t31 50.5t22 76l76 358h124zM355 820h125l-154 -146h-102zM509 674h-102l131 146
h125z" />
    <glyph glyph-name="uhungarumlaut" unicode="&#x171;" horiz-adv-x="459" 
d="M211 423l-56 -259q-2 -11 -4 -23t-2 -22q0 -17 7.5 -28t30.5 -11q45 0 86 47l64 296h122l-55 -257l-25 -166h-98v48q-32 -28 -70 -43t-73 -15q-61 0 -88 26t-27 76q0 13 2.5 29t4.5 28l58 274h123zM260 634h125l-154 -146h-102zM414 488h-102l131 146h125z" />
    <glyph glyph-name="Uogonek" unicode="&#x172;" horiz-adv-x="578" 
d="M346 -189q-21 -9 -51 -14.5t-58 -5.5q-98 0 -98 74q0 26 6 46t21 37t40.5 32t63.5 32q8 4 20 8t24.5 8t25 7t21.5 5l-11 -35q-7 -2 -22 -9t-29 -17q-16 -11 -27 -26.5t-11 -46.5q0 -17 7.5 -28t25.5 -11q11 0 22 1.5t22 5.5zM608 608l-77 -365q-29 -134 -100.5 -193.5
t-187.5 -59.5q-67 0 -108.5 20.5t-62 58t-21.5 88.5t12 113l71 338h124l-79 -373q-6 -26 -7 -52.5t6 -48t25.5 -35t51.5 -13.5t57.5 9t42.5 28.5t31 50.5t22 76l76 358h124z" />
    <glyph glyph-name="uogonek" unicode="&#x173;" horiz-adv-x="459" 
d="M211 423l-56 -259q-2 -11 -4 -23t-2 -22q0 -17 7.5 -28t30.5 -11q45 0 86 47l64 296h122l-55 -257l-25 -166h-98v48q-32 -28 -70 -43t-73 -15q-61 0 -88 26t-27 76q0 13 2.5 29t4.5 28l58 274h123zM360 -189q-20 -9 -50 -14.5t-58 -5.5q-99 0 -99 73q0 20 4 38t17 35
t37 33t63 33q26 11 52 18.5t49 11.5l4 -33q-17 -8 -33 -16t-30 -18q-26 -18 -34.5 -33.5t-8.5 -35.5q0 -30 35 -30q11 0 22.5 1.5t21.5 5.5z" />
    <glyph glyph-name="Ydieresis" unicode="&#x178;" horiz-adv-x="535" 
d="M286 0h-124l61 239q-18 39 -37 87.5t-37.5 99t-36.5 98t-36 84.5h132l86 -259h8l184 259h131l-279 -369zM335 682h-119l21 97h119zM519 682h-119l20 97h119z" />
    <glyph glyph-name="Zacute" unicode="&#x179;" horiz-adv-x="524" 
d="M152 97h312l-19 -97h-463l14 77l399 435h-292l19 96h443l-16 -77zM602 820l-154 -146h-114l131 146h137z" />
    <glyph glyph-name="zacute" unicode="&#x17a;" horiz-adv-x="424" 
d="M-17 0l15 70l281 266h-217l20 87h361l-15 -70l-282 -266h228l-19 -87h-372zM477 634l-154 -146h-114l131 146h137z" />
    <glyph glyph-name="Zdotaccent" unicode="&#x17b;" horiz-adv-x="524" 
d="M152 97h312l-19 -97h-463l14 77l399 435h-292l19 96h443l-16 -77zM437 683h-124l21 97h124z" />
    <glyph glyph-name="zdotaccent" unicode="&#x17c;" horiz-adv-x="424" 
d="M-17 0l15 70l281 266h-217l20 87h361l-15 -70l-282 -266h228l-19 -87h-372zM333 511h-124l21 97h124z" />
    <glyph glyph-name="Zcaron" unicode="&#x17d;" horiz-adv-x="524" 
d="M152 97h312l-19 -97h-463l14 77l399 435h-292l19 96h443l-16 -77zM292 673l-59 146h103l39 -85h10l79 85h104l-125 -146h-151z" />
    <glyph glyph-name="zcaron" unicode="&#x17e;" horiz-adv-x="424" 
d="M-17 0l15 70l281 266h-217l20 87h361l-15 -70l-282 -266h228l-19 -87h-372zM192 488l-59 146h103l39 -85h10l79 85h104l-125 -146h-151z" />
    <glyph glyph-name="florin" unicode="&#x192;" horiz-adv-x="421" 
d="M199 -43q-10 -48 -30.5 -80.5t-49 -52.5t-63.5 -28.5t-74 -8.5q-17 0 -33.5 2t-31.5 4l30 88q9 -2 17 -3.5t19 -1.5q42 0 63 18t29 56l68 315h-72l18 86h72l20 96q10 48 30.5 81t49 53t63.5 28.5t74 8.5q28 0 54 -4t45 -13l-43 -85q-13 8 -27 10.5t-30 2.5q-42 0 -63 -18
t-29 -57l-22 -103h124l-18 -86h-124z" />
    <glyph glyph-name="uni0218" unicode="&#x218;" horiz-adv-x="498" 
d="M60 122q32 -15 69 -23t70 -8q26 0 50 4.5t42 14t29 24.5t11 35q0 22 -12 35t-20 17q-32 17 -66 30.5t-69 30.5q-40 20 -64 53t-24 77q0 51 18.5 90t53 64.5t82 38.5t106.5 13q46 0 91 -8.5t83 -28.5l-50 -89q-25 11 -57.5 19.5t-74.5 8.5q-51 0 -87 -18.5t-36 -59.5
q0 -24 14 -38t28 -21q26 -13 62 -27t67 -31q33 -18 57 -50t24 -80q0 -51 -19.5 -89.5t-54.5 -64t-83 -38.5t-106 -13q-49 0 -95.5 10t-91.5 32zM95 -225q36 42 53.5 83t26.5 92h105q-8 -40 -18.5 -72t-25.5 -59t-34 -50.5t-44 -46.5z" />
    <glyph glyph-name="uni0219" unicode="&#x219;" horiz-adv-x="394" 
d="M41 106q25 -13 56.5 -21t65.5 -8q9 0 22 1t24 4.5t19 11.5t8 22q0 17 -11.5 26t-35.5 20q-11 5 -30.5 12.5t-29.5 12.5q-40 17 -63 39.5t-23 59.5q0 40 17.5 68t46.5 45.5t65.5 25.5t75.5 8q45 0 82 -8.5t57 -17.5l-35 -86q-25 13 -51.5 20t-61.5 7q-9 0 -22 -1
t-25.5 -4.5t-21 -11.5t-8.5 -22q0 -16 12 -24.5t34 -17.5q6 -3 15 -6.5t18.5 -7t18.5 -7t14 -5.5q35 -14 58.5 -37.5t23.5 -60.5q0 -42 -17 -71t-45 -47.5t-65 -26.5t-77 -8q-51 0 -84.5 8.5t-65.5 22.5zM41 -225q36 42 53.5 83t26.5 92h105q-8 -40 -18.5 -72t-25.5 -59
t-34 -50.5t-44 -46.5z" />
    <glyph glyph-name="uni021A" unicode="&#x21a;" horiz-adv-x="500" 
d="M564 608l-20 -98h-174l-108 -510h-124l108 510h-173l21 98h470zM55 -225q36 42 53.5 83t26.5 92h105q-8 -40 -18.5 -72t-25.5 -59t-34 -50.5t-44 -46.5z" />
    <glyph glyph-name="uni021B" unicode="&#x21b;" horiz-adv-x="353" 
d="M312 22q-35 -18 -67.5 -25t-72.5 -7q-119 0 -119 103q0 10 1.5 21t3.5 23l42 198h-70l17 78l70 8l18 81l126 21l-21 -100h140l-19 -87h-139l-36 -170l-4 -22t-2 -20q0 -18 9 -29t35 -11q25 0 46.5 4.5t41.5 12.5v-79zM26 -225q36 42 53.5 83t26.5 92h105
q-8 -40 -18.5 -72t-25.5 -59t-34 -50.5t-44 -46.5z" />
    <glyph glyph-name="circumflex" unicode="&#x2c6;" horiz-adv-x="487" 
d="M414 634l56 -146h-101l-36 85h-10l-83 -85h-105l130 146h149z" />
    <glyph glyph-name="caron" unicode="&#x2c7;" horiz-adv-x="487" 
d="M226 488l-59 146h103l39 -85h10l79 85h104l-125 -146h-151z" />
    <glyph glyph-name="breve" unicode="&#x2d8;" horiz-adv-x="487" 
d="M483 634q-7 -75 -48.5 -114.5t-126.5 -39.5q-37 0 -62.5 9.5t-41 26t-22.5 39t-7 48.5q0 16 3 31h88q-2 -8 -2 -13.5v-8.5q0 -24 12 -38.5t41 -14.5q70 0 76 75h90z" />
    <glyph glyph-name="dotaccent" unicode="&#x2d9;" horiz-adv-x="487" 
d="M371 511h-124l21 97h124z" />
    <glyph glyph-name="ring" unicode="&#x2da;" horiz-adv-x="488" 
d="M287 457q-49 0 -72.5 25.5t-23.5 58.5q0 56 34.5 88.5t100.5 32.5q48 0 72 -26t24 -59q0 -57 -34.5 -88.5t-100.5 -31.5zM299 521q22 0 34.5 11t12.5 33q0 14 -8.5 23t-23.5 9q-48 0 -48 -44q0 -14 8.5 -23t24.5 -9z" />
    <glyph glyph-name="ogonek" unicode="&#x2db;" horiz-adv-x="259" 
d="M158 -189q-20 -9 -50 -14.5t-58 -5.5q-99 0 -99 73q0 20 4 38t17 35t37 33t63 33q26 11 52 18.5t49 11.5l4 -33q-17 -8 -33 -16t-30 -18q-26 -18 -34.5 -33.5t-8.5 -35.5q0 -30 35 -30q11 0 22.5 1.5t21.5 5.5z" />
    <glyph glyph-name="tilde" unicode="&#x2dc;" horiz-adv-x="488" 
d="M480 547q-24 -20 -54 -33.5t-64 -13.5q-22 0 -39 5t-32.5 11.5t-30.5 11.5t-32 5q-23 0 -42 -8t-37 -20l-30 68q24 20 54 33t64 13q22 0 39 -5t32.5 -11t30.5 -11t32 -5q23 0 42.5 8t36.5 20z" />
    <glyph glyph-name="hungarumlaut" unicode="&#x2dd;" horiz-adv-x="475" 
d="M162 634h125l-154 -146h-102zM316 488h-102l131 146h125z" />
    <glyph glyph-name="endash" unicode="&#x2013;" horiz-adv-x="486" 
d="M437 177h-399l20 96h399z" />
    <glyph glyph-name="emdash" unicode="&#x2014;" horiz-adv-x="736" 
d="M736 177h-747l20 96h747z" />
    <glyph glyph-name="quoteleft" unicode="&#x2018;" horiz-adv-x="241" 
d="M289.997 593.994q-23.999 -27.999 -38.998 -53.9971t-25.498 -51.4971q-10.499 -25.498 -16.999 -51.9961q-6.5 -26.499 -12.499 -56.4971h-109.993q9.99902 45.9971 22.998 82.4951q13 36.498 30.498 67.4961q17.499 30.998 39.498 57.9961t48.9971 53.9971z" />
    <glyph glyph-name="quoteright" unicode="&#x2019;" horiz-adv-x="242" 
d="M69 420q24 28 39 54t25.5 51.5t17 52t12.5 56.5h110q-10 -46 -23 -82.5t-30.5 -67.5t-39.5 -58t-49 -54z" />
    <glyph glyph-name="quotesinglbase" unicode="&#x201a;" horiz-adv-x="236" 
d="M-48 -101q24 28 39 54t25.5 51.5t17 52t12.5 56.5h110q-10 -46 -23 -82.5t-30.5 -67.5t-39.5 -58t-49 -54z" />
    <glyph glyph-name="quotedblleft" unicode="&#x201c;" horiz-adv-x="426" 
d="M289.997 593.994q-23.999 -27.999 -38.998 -53.9971t-25.498 -51.4971q-10.499 -25.498 -16.999 -51.9961q-6.5 -26.499 -12.499 -56.4971h-109.993q9.99902 45.9971 22.998 82.4951q13 36.498 30.498 67.4961q17.499 30.998 39.498 57.9961t48.9971 53.9971z
M474.997 593.994q-23.999 -27.999 -38.998 -53.9971t-25.498 -51.4971q-10.499 -25.498 -16.999 -51.9961q-6.5 -26.499 -12.499 -56.4971h-109.993q9.99902 45.9971 22.998 82.4951q13 36.498 30.498 67.4961q17.499 30.998 39.498 57.9961t48.9971 53.9971z" />
    <glyph glyph-name="quotedblright" unicode="&#x201d;" horiz-adv-x="426" 
d="M69 420q24 28 39 54t25.5 51.5t17 52t12.5 56.5h110q-10 -46 -23 -82.5t-30.5 -67.5t-39.5 -58t-49 -54zM253 420q24 28 39 54t25.5 51.5t17 52t12.5 56.5h110q-10 -46 -23 -82.5t-30.5 -67.5t-39.5 -58t-49 -54z" />
    <glyph glyph-name="quotedblbase" unicode="&#x201e;" horiz-adv-x="426" 
d="M-32 -101q24 28 39 54t25.5 51.5t17 52t12.5 56.5h110q-10 -46 -23 -82.5t-30.5 -67.5t-39.5 -58t-49 -54zM152 -101q24 28 39 54t25.5 51.5t17 52t12.5 56.5h110q-10 -46 -23 -82.5t-30.5 -67.5t-39.5 -58t-49 -54z" />
    <glyph glyph-name="dagger" unicode="&#x2020;" horiz-adv-x="518" 
d="M263 401l12 207h140l-77 -207l200 30l-28 -133l-187 30l-12 -208l-118 -325h-43l21 325l77 208l-201 -30l28 133z" />
    <glyph glyph-name="daggerdbl" unicode="&#x2021;" horiz-adv-x="518" 
d="M337 401l201 30l-28 -133l-188 30l-6 -127l-47 -126l200 30l-29 -133l-187 31l-11 -208h-140l76 208l-201 -31l29 133l187 -29l6 125l47 127l-199 -30l28 133l187 -30l13 207h140z" />
    <glyph glyph-name="bullet" unicode="&#x2022;" horiz-adv-x="300" 
d="M30 216q0 23 10 46t27.5 42t41.5 30.5t53 11.5q41 0 64 -25t23 -63q0 -24 -10.5 -47t-28.5 -41.5t-42.5 -29.5t-51.5 -11q-38 0 -62 23.5t-24 63.5z" />
    <glyph glyph-name="ellipsis" unicode="&#x2026;" horiz-adv-x="679" 
d="M37 115h123l-25 -115h-122zM260 115h123l-25 -115h-122zM483 115h123l-25 -115h-122z" />
    <glyph glyph-name="guilsinglleft" unicode="&#x2039;" horiz-adv-x="281" 
d="M16 211l187 182l67 -63l-120 -118l69 -115l-94 -67z" />
    <glyph glyph-name="guilsinglright" unicode="&#x203a;" horiz-adv-x="281" 
d="M271.001 212.013l-186.988 -181.988l-66.9961 62.9961l119.992 117.992l-68.9951 114.993l93.9941 66.9961z" />
    <glyph glyph-name="won" unicode="&#x20a9;" horiz-adv-x="862" 
d="M61 395h81l1 213h120l-7 -213h110l79 213h152l-10 -213h111l83 213h113l-88 -213h79l-14 -68h-93l-22 -52h104l-15 -68h-117l-85 -207h-160l8 207h-113l-79 -207h-160l1 207h-119l14 68h106v52h-94zM404 275h89l2 52h-71zM582 275h69l20 52h-87zM252 275h69l20 52h-87z
M450 395h48l5 117h-8zM582 97l43 110h-46l-5 -110h8zM255 97l41 110h-46l-3 -110h8z" />
    <glyph glyph-name="Euro" unicode="&#x20ac;" horiz-adv-x="559" 
d="M71 397h51q34 105 114.5 163t209.5 58q42 0 88 -12t78 -38l-57 -99q-16 23 -47 37t-73 14q-68 0 -111 -35t-66 -88h260l-40 -68h-241q-3 -15 -5 -30t-3 -30h213l-39 -68h-173q8 -53 41 -80t86 -27q79 0 139 25l-24 -107q-72 -22 -147 -22q-54 0 -95 15.5t-69 43.5
t-43.5 66.5t-18.5 85.5h-94l38 68h56q2 32 6 60h-73z" />
    <glyph glyph-name="trademark" unicode="&#x2122;" horiz-adv-x="706" 
d="M118 295l52 246h-88l14 67h267l-14 -67h-87l-52 -246h-92zM394 608h135l-1 -74l-4 -126h9l50 126l28 74h137l-67 -313h-82l23 107l34 132h-11l-49 -126l-45 -100h-88l-2 103l4 123h-11l-22 -132l-23 -107h-81z" />
    <glyph glyph-name="minus" unicode="&#x2212;" 
d="M456 197h-400l20 96h400z" />
    <glyph glyph-name="commaaccent" unicode="&#xf6c3;" horiz-adv-x="509" 
d="M83 -225q36 42 53.5 83t26.5 92h105q-8 -40 -18.5 -72t-25.5 -59t-34 -50.5t-44 -46.5z" />
    </font>
</defs>
</svg>
